<?xml version="1.0" encoding="UTF-8"?><svg xmlns="http://www.w3.org/2000/svg" xmlns:xlink="http://www.w3.org/1999/xlink" contentScriptType="text/ecmascript" width="37.5" zoomAndPan="magnify" contentStyleType="text/css" viewBox="0 0 37.5 37.499999" height="37.499999" preserveAspectRatio="xMidYMid meet" version="1.0"><defs><clipPath id="clip-0"><path d="M 1.851562 0 L 34 0 L 34 18 L 1.851562 18 Z M 1.851562 0 " clip-rule="nonzero"/></clipPath><clipPath id="clip-1"><path d="M 3 16 L 35.601562 16 L 35.601562 37.007812 L 3 37.007812 Z M 3 16 " clip-rule="nonzero"/></clipPath><clipPath id="clip-2"><path d="M 3 15 L 35.601562 15 L 35.601562 37.007812 L 3 37.007812 Z M 3 15 " clip-rule="nonzero"/></clipPath><clipPath id="clip-3"><path d="M 3 16 L 35.601562 16 L 35.601562 22 L 3 22 Z M 3 16 " clip-rule="nonzero"/></clipPath><clipPath id="clip-4"><path d="M 3 15 L 35.601562 15 L 35.601562 22 L 3 22 Z M 3 15 " clip-rule="nonzero"/></clipPath><clipPath id="clip-5"><path d="M 27 16 L 35.601562 16 L 35.601562 22 L 27 22 Z M 27 16 " clip-rule="nonzero"/></clipPath></defs><path fill="rgb(100%, 100%, 100%)" d="M 4.882812 16.75 C 4.144531 16.75 3.492188 16.308594 3.222656 15.621094 L 2.332031 13.355469 C 2.15625 12.914062 2.167969 12.425781 2.355469 11.988281 C 2.546875 11.550781 2.894531 11.214844 3.339844 11.039062 L 30.25 0.414062 C 30.460938 0.332031 30.679688 0.289062 30.90625 0.289062 C 31.640625 0.289062 32.292969 0.730469 32.566406 1.421875 L 33.457031 3.683594 C 33.632812 4.128906 33.621094 4.613281 33.433594 5.050781 C 33.242188 5.488281 32.894531 5.824219 32.449219 6 L 5.539062 16.625 C 5.328125 16.710938 5.109375 16.75 4.882812 16.75 " fill-opacity="1" fill-rule="nonzero"/><g clip-path="url(#clip-0)"><path fill="rgb(9.408569%, 9.408569%, 9.408569%)" d="M 30.90625 -0.00390625 C 30.644531 -0.00390625 30.386719 0.046875 30.144531 0.144531 L 3.230469 10.769531 C 2.714844 10.972656 2.308594 11.363281 2.089844 11.871094 C 1.867188 12.382812 1.859375 12.945312 2.0625 13.464844 L 2.953125 15.726562 C 3.265625 16.527344 4.023438 17.042969 4.882812 17.042969 C 5.144531 17.042969 5.402344 16.992188 5.644531 16.898438 L 32.558594 6.273438 C 33.074219 6.066406 33.476562 5.675781 33.699219 5.167969 C 33.921875 4.65625 33.929688 4.09375 33.726562 3.578125 L 32.835938 1.3125 C 32.519531 0.515625 31.761719 -0.00390625 30.90625 -0.00390625 Z M 30.90625 0.578125 C 31.5 0.578125 32.0625 0.9375 32.296875 1.527344 L 33.183594 3.789062 C 33.488281 4.558594 33.109375 5.425781 32.34375 5.730469 L 5.433594 16.355469 C 5.253906 16.425781 5.066406 16.460938 4.882812 16.460938 C 4.289062 16.460938 3.726562 16.101562 3.496094 15.511719 L 2.601562 13.25 C 2.300781 12.480469 2.675781 11.613281 3.445312 11.308594 L 30.355469 0.683594 C 30.535156 0.613281 30.722656 0.578125 30.90625 0.578125 " fill-opacity="1" fill-rule="nonzero"/></g><path fill="rgb(9.408569%, 9.408569%, 9.408569%)" d="M 8.101562 15.515625 L 4.640625 16.882812 L 5.972656 10.152344 L 9.429688 8.789062 L 8.101562 15.515625 " fill-opacity="1" fill-rule="nonzero"/><path fill="rgb(9.408569%, 9.408569%, 9.408569%)" d="M 15.339844 12.660156 L 11.882812 14.023438 L 13.214844 7.296875 L 16.671875 5.929688 L 15.339844 12.660156 " fill-opacity="1" fill-rule="nonzero"/><path fill="rgb(9.408569%, 9.408569%, 9.408569%)" d="M 22.582031 9.800781 L 19.121094 11.164062 L 20.453125 4.4375 L 23.914062 3.070312 L 22.582031 9.800781 " fill-opacity="1" fill-rule="nonzero"/><path fill="rgb(9.408569%, 9.408569%, 9.408569%)" d="M 29.824219 6.941406 L 26.363281 8.308594 L 27.695312 1.578125 L 31.152344 0.210938 L 29.824219 6.941406 " fill-opacity="1" fill-rule="nonzero"/><g clip-path="url(#clip-1)"><path fill="rgb(19.60907%, 19.219971%, 27.059937%)" d="M 6.1875 37.175781 C 4.695312 37.175781 3.480469 35.957031 3.480469 34.464844 L 3.480469 16.097656 L 35.261719 16.097656 L 35.261719 34.464844 C 35.261719 35.957031 34.046875 37.175781 32.554688 37.175781 L 6.1875 37.175781 " fill-opacity="1" fill-rule="nonzero"/></g><g clip-path="url(#clip-2)"><path fill="rgb(9.408569%, 9.408569%, 9.408569%)" d="M 35.585938 15.773438 L 3.160156 15.773438 L 3.160156 34.464844 C 3.160156 36.136719 4.519531 37.5 6.1875 37.5 L 32.554688 37.5 C 34.226562 37.5 35.585938 36.136719 35.585938 34.464844 Z M 34.9375 16.421875 L 34.9375 34.464844 C 34.9375 35.78125 33.871094 36.851562 32.554688 36.851562 L 6.1875 36.851562 C 4.871094 36.851562 3.804688 35.78125 3.804688 34.464844 L 3.804688 16.421875 L 34.9375 16.421875 " fill-opacity="1" fill-rule="nonzero"/></g><g clip-path="url(#clip-3)"><path fill="rgb(100%, 100%, 100%)" d="M 3.515625 21.191406 L 3.515625 16.0625 L 35.203125 16.0625 L 35.203125 21.191406 L 3.515625 21.191406 " fill-opacity="1" fill-rule="nonzero"/></g><g clip-path="url(#clip-4)"><path fill="rgb(9.408569%, 9.408569%, 9.408569%)" d="M 35.492188 15.769531 L 3.222656 15.769531 L 3.222656 21.484375 L 35.492188 21.484375 Z M 34.914062 16.351562 L 34.914062 20.898438 L 3.804688 20.898438 L 3.804688 16.351562 L 34.914062 16.351562 " fill-opacity="1" fill-rule="nonzero"/></g><path fill="rgb(9.408569%, 9.408569%, 9.408569%)" d="M 7.261719 21.046875 L 3.414062 21.046875 L 7.246094 16.027344 L 11.097656 16.027344 L 7.261719 21.046875 " fill-opacity="1" fill-rule="nonzero"/><path fill="rgb(9.408569%, 9.408569%, 9.408569%)" d="M 15.320312 21.046875 L 11.46875 21.046875 L 15.300781 16.027344 L 19.152344 16.027344 L 15.320312 21.046875 " fill-opacity="1" fill-rule="nonzero"/><path fill="rgb(9.408569%, 9.408569%, 9.408569%)" d="M 23.375 21.046875 L 19.527344 21.046875 L 23.359375 16.027344 L 27.207031 16.027344 L 23.375 21.046875 " fill-opacity="1" fill-rule="nonzero"/><g clip-path="url(#clip-5)"><path fill="rgb(9.408569%, 9.408569%, 9.408569%)" d="M 31.429688 21.046875 L 27.578125 21.046875 L 31.414062 16.027344 L 35.261719 16.027344 L 31.429688 21.046875 " fill-opacity="1" fill-rule="nonzero"/></g><path fill="rgb(9.408569%, 9.408569%, 9.408569%)" d="M 3.507812 22.757812 L 6.175781 22.757812 C 6.308594 22.757812 6.417969 22.648438 6.417969 22.515625 C 6.417969 22.382812 6.308594 22.273438 6.175781 22.273438 L 3.507812 22.273438 C 3.375 22.273438 3.265625 22.382812 3.265625 22.515625 C 3.265625 22.648438 3.375 22.757812 3.507812 22.757812 " fill-opacity="1" fill-rule="nonzero"/><path fill="rgb(9.408569%, 9.408569%, 9.408569%)" d="M 3.507812 24 L 6.175781 24 C 6.308594 24 6.417969 23.890625 6.417969 23.757812 C 6.417969 23.621094 6.308594 23.511719 6.175781 23.511719 L 3.507812 23.511719 C 3.375 23.511719 3.265625 23.621094 3.265625 23.757812 C 3.265625 23.890625 3.375 24 3.507812 24 " fill-opacity="1" fill-rule="nonzero"/><path fill="rgb(9.408569%, 9.408569%, 9.408569%)" d="M 3.507812 25.238281 L 6.175781 25.238281 C 6.308594 25.238281 6.417969 25.128906 6.417969 24.996094 C 6.417969 24.863281 6.308594 24.753906 6.175781 24.753906 L 3.507812 24.753906 C 3.375 24.753906 3.265625 24.863281 3.265625 24.996094 C 3.265625 25.128906 3.375 25.238281 3.507812 25.238281 " fill-opacity="1" fill-rule="nonzero"/><path fill="rgb(9.408569%, 9.408569%, 9.408569%)" d="M 3.507812 26.480469 L 6.175781 26.480469 C 6.308594 26.480469 6.417969 26.371094 6.417969 26.238281 C 6.417969 26.101562 6.308594 25.996094 6.175781 25.996094 L 3.507812 25.996094 C 3.375 25.996094 3.265625 26.101562 3.265625 26.238281 C 3.265625 26.371094 3.375 26.480469 3.507812 26.480469 " fill-opacity="1" fill-rule="nonzero"/><path fill="rgb(9.408569%, 9.408569%, 9.408569%)" d="M 3.507812 27.722656 L 6.175781 27.722656 C 6.308594 27.722656 6.417969 27.613281 6.417969 27.476562 C 6.417969 27.34375 6.308594 27.234375 6.175781 27.234375 L 3.507812 27.234375 C 3.375 27.234375 3.265625 27.34375 3.265625 27.476562 C 3.265625 27.613281 3.375 27.722656 3.507812 27.722656 " fill-opacity="1" fill-rule="nonzero"/><path fill="rgb(9.408569%, 9.408569%, 9.408569%)" d="M 3.507812 28.960938 L 6.175781 28.960938 C 6.308594 28.960938 6.417969 28.851562 6.417969 28.71875 C 6.417969 28.585938 6.308594 28.476562 6.175781 28.476562 L 3.507812 28.476562 C 3.375 28.476562 3.265625 28.585938 3.265625 28.71875 C 3.265625 28.851562 3.375 28.960938 3.507812 28.960938 " fill-opacity="1" fill-rule="nonzero"/><path fill="rgb(9.408569%, 9.408569%, 9.408569%)" d="M 3.507812 30.203125 L 6.175781 30.203125 C 6.308594 30.203125 6.417969 30.09375 6.417969 29.957031 C 6.417969 29.824219 6.308594 29.714844 6.175781 29.714844 L 3.507812 29.714844 C 3.375 29.714844 3.265625 29.824219 3.265625 29.957031 C 3.265625 30.09375 3.375 30.203125 3.507812 30.203125 " fill-opacity="1" fill-rule="nonzero"/><path fill="rgb(9.408569%, 9.408569%, 9.408569%)" d="M 3.507812 31.441406 L 6.175781 31.441406 C 6.308594 31.441406 6.417969 31.332031 6.417969 31.199219 C 6.417969 31.066406 6.308594 30.957031 6.175781 30.957031 L 3.507812 30.957031 C 3.375 30.957031 3.265625 31.066406 3.265625 31.199219 C 3.265625 31.332031 3.375 31.441406 3.507812 31.441406 " fill-opacity="1" fill-rule="nonzero"/><path fill="rgb(9.408569%, 9.408569%, 9.408569%)" d="M 3.507812 32.683594 L 6.175781 32.683594 C 6.308594 32.683594 6.417969 32.574219 6.417969 32.441406 C 6.417969 32.304688 6.308594 32.199219 6.175781 32.199219 L 3.507812 32.199219 C 3.375 32.199219 3.265625 32.304688 3.265625 32.441406 C 3.265625 32.574219 3.375 32.683594 3.507812 32.683594 " fill-opacity="1" fill-rule="nonzero"/><path fill="rgb(9.408569%, 9.408569%, 9.408569%)" d="M 3.507812 33.921875 L 6.175781 33.921875 C 6.308594 33.921875 6.417969 33.816406 6.417969 33.679688 C 6.417969 33.546875 6.308594 33.4375 6.175781 33.4375 L 3.507812 33.4375 C 3.375 33.4375 3.265625 33.546875 3.265625 33.679688 C 3.265625 33.816406 3.375 33.921875 3.507812 33.921875 " fill-opacity="1" fill-rule="nonzero"/><path fill="rgb(9.408569%, 9.408569%, 9.408569%)" d="M 3.507812 35.164062 L 6.175781 35.164062 C 6.308594 35.164062 6.417969 35.054688 6.417969 34.921875 C 6.417969 34.785156 6.308594 34.679688 6.175781 34.679688 L 3.507812 34.679688 C 3.375 34.679688 3.265625 34.785156 3.265625 34.921875 C 3.265625 35.054688 3.375 35.164062 3.507812 35.164062 " fill-opacity="1" fill-rule="nonzero"/><path fill="rgb(9.408569%, 9.408569%, 9.408569%)" d="M 4.019531 36.40625 L 6.6875 36.40625 C 6.820312 36.40625 6.929688 36.296875 6.929688 36.160156 C 6.929688 36.027344 6.820312 35.917969 6.6875 35.917969 L 4.019531 35.917969 C 3.886719 35.917969 3.777344 36.027344 3.777344 36.160156 C 3.777344 36.296875 3.886719 36.40625 4.019531 36.40625 " fill-opacity="1" fill-rule="nonzero"/><path fill="rgb(100%, 100%, 100%)" d="M 27.28125 33.761719 L 11.449219 33.761719 L 11.449219 24.375 L 27.28125 24.375 L 27.28125 33.761719 " fill-opacity="1" fill-rule="nonzero"/><path fill="rgb(9.408569%, 9.408569%, 9.408569%)" d="M 27.28125 33.761719 L 27.28125 33.46875 L 11.738281 33.46875 L 11.738281 24.667969 L 26.992188 24.667969 L 26.992188 33.761719 L 27.28125 33.761719 L 27.28125 33.46875 L 27.28125 33.761719 L 27.574219 33.761719 L 27.574219 24.085938 L 11.15625 24.085938 L 11.15625 34.050781 L 27.574219 34.050781 L 27.574219 33.761719 L 27.28125 33.761719 " fill-opacity="1" fill-rule="nonzero"/><path fill="rgb(9.408569%, 9.408569%, 9.408569%)" d="M 15.148438 26.1875 C 15.175781 26.097656 15.195312 26.007812 15.234375 25.921875 C 15.265625 25.84375 15.417969 25.710938 15.5 25.738281 C 15.566406 25.765625 15.703125 25.824219 15.742188 25.933594 C 15.789062 26.050781 15.792969 26.175781 15.792969 26.28125 C 15.800781 26.535156 15.78125 26.789062 15.789062 27.042969 C 15.800781 27.53125 15.820312 28.015625 15.847656 28.496094 C 15.867188 28.921875 15.890625 29.351562 15.917969 29.773438 C 15.945312 30.132812 15.988281 30.496094 16.003906 30.863281 C 16.023438 31.265625 16.015625 31.671875 16.015625 32.074219 C 16.015625 32.09375 16.015625 32.113281 16.015625 32.132812 L 16.015625 32.140625 C 16.085938 32.335938 15.949219 32.472656 15.808594 32.492188 C 15.617188 32.511719 15.519531 32.347656 15.527344 32.191406 C 15.539062 32.023438 15.566406 31.851562 15.558594 31.683594 C 15.554688 31.265625 15.527344 30.855469 15.507812 30.4375 C 15.5 30.316406 15.488281 30.191406 15.480469 30.0625 C 15.476562 29.898438 15.460938 29.734375 15.476562 29.570312 C 15.488281 29.414062 15.460938 29.265625 15.449219 29.117188 C 15.4375 28.9375 15.410156 28.761719 15.398438 28.585938 C 15.371094 28.28125 15.351562 27.976562 15.332031 27.667969 C 15.328125 27.519531 15.320312 27.363281 15.320312 27.210938 L 15.292969 27.296875 C 15.226562 27.519531 15.195312 27.753906 15.144531 27.980469 C 15.117188 28.085938 15.046875 28.25 14.851562 28.261719 C 14.609375 28.28125 14.5625 28.078125 14.542969 27.988281 C 14.503906 27.777344 14.46875 27.570312 14.414062 27.363281 C 14.402344 27.316406 14.386719 27.277344 14.367188 27.238281 C 14.363281 27.210938 14.347656 27.1875 14.335938 27.160156 C 14.34375 27.445312 14.347656 27.734375 14.347656 28.019531 C 14.355469 28.621094 14.34375 29.21875 14.347656 29.828125 C 14.347656 30.238281 14.355469 30.652344 14.367188 31.066406 C 14.382812 31.390625 14.425781 31.714844 14.433594 32.035156 C 14.441406 32.167969 14.308594 32.289062 14.21875 32.316406 C 13.984375 32.386719 13.925781 32.152344 13.925781 32.066406 C 13.925781 31.597656 13.914062 31.136719 13.90625 30.671875 C 13.898438 30.355469 13.886719 30.035156 13.886719 29.722656 C 13.886719 29.324219 13.898438 28.933594 13.898438 28.542969 C 13.894531 28.019531 13.875 27.5 13.867188 26.976562 C 13.863281 26.757812 13.875 26.535156 13.875 26.3125 C 13.875 26.273438 13.863281 26.226562 13.863281 26.1875 C 13.855469 26.144531 13.839844 26.078125 13.847656 26.019531 C 13.855469 25.953125 13.894531 25.789062 14.011719 25.746094 C 14.082031 25.710938 14.304688 25.652344 14.382812 25.890625 C 14.492188 26.214844 14.609375 26.535156 14.726562 26.859375 C 14.765625 26.976562 14.804688 27.101562 14.835938 27.21875 L 15.148438 26.1875 " fill-opacity="1" fill-rule="nonzero"/><path fill="rgb(9.408569%, 9.408569%, 9.408569%)" d="M 17.859375 26.265625 C 17.84375 26.253906 17.832031 26.242188 17.8125 26.226562 C 17.800781 26.214844 17.78125 26.195312 17.765625 26.167969 C 17.761719 26.15625 17.765625 26.175781 17.746094 26.1875 C 17.570312 26.351562 17.507812 26.578125 17.460938 26.828125 C 17.363281 27.394531 17.285156 27.960938 17.238281 28.535156 C 17.207031 29.015625 17.226562 29.5 17.226562 29.976562 C 17.304688 30.492188 17.375 31 17.453125 31.507812 C 17.480469 31.65625 17.511719 31.800781 17.578125 31.910156 C 17.597656 31.945312 17.664062 31.996094 17.742188 32.015625 L 17.726562 32.003906 C 17.746094 31.976562 17.761719 31.9375 17.773438 31.917969 C 17.792969 31.871094 17.804688 31.828125 17.820312 31.777344 C 17.839844 31.722656 17.851562 31.671875 17.863281 31.617188 C 17.957031 31.320312 17.980469 31.003906 18 30.6875 C 18.027344 30.367188 18.035156 30.042969 18.074219 29.722656 C 18.113281 29.351562 18.09375 28.972656 18.097656 28.59375 C 18.105469 28.230469 18.125 27.863281 18.113281 27.5 C 18.105469 27.210938 18.039062 26.925781 18.019531 26.636719 C 18.015625 26.476562 17.96875 26.359375 17.859375 26.265625 Z M 18.488281 30.125 C 18.464844 30.492188 18.445312 30.851562 18.398438 31.207031 C 18.367188 31.488281 18.292969 31.761719 18.230469 32.035156 C 18.183594 32.238281 18.058594 32.441406 17.804688 32.484375 C 17.589844 32.523438 17.304688 32.414062 17.175781 32.1875 C 17.117188 32.089844 17.078125 31.972656 17.058594 31.867188 C 17.003906 31.59375 16.960938 31.3125 16.882812 30.910156 L 16.90625 30.910156 C 16.875 30.707031 16.835938 30.511719 16.824219 30.308594 C 16.796875 29.882812 16.785156 29.453125 16.785156 29.03125 C 16.785156 28.632812 16.796875 28.230469 16.828125 27.832031 C 16.847656 27.578125 16.902344 27.316406 16.953125 27.0625 C 17 26.828125 17.050781 26.585938 17.136719 26.363281 C 17.207031 26.167969 17.332031 25.988281 17.441406 25.832031 C 17.570312 25.648438 17.988281 25.699219 18.113281 25.816406 C 18.320312 26 18.46875 26.226562 18.484375 26.539062 C 18.496094 26.757812 18.5625 26.972656 18.566406 27.191406 C 18.582031 27.550781 18.566406 27.910156 18.566406 28.269531 C 18.566406 28.484375 18.566406 28.707031 18.5625 28.925781 C 18.542969 29.324219 18.515625 29.726562 18.488281 30.125 " fill-opacity="1" fill-rule="nonzero"/><path fill="rgb(9.408569%, 9.408569%, 9.408569%)" d="M 20.839844 25.855469 C 20.867188 25.757812 20.949219 25.71875 21.039062 25.710938 C 21.144531 25.707031 21.234375 25.757812 21.261719 25.863281 C 21.269531 25.894531 21.269531 25.925781 21.269531 25.949219 C 21.269531 25.960938 21.261719 25.972656 21.261719 25.988281 C 21.25 26.226562 21.214844 26.460938 21.183594 26.695312 C 21.105469 27.308594 21.015625 27.921875 20.9375 28.527344 C 20.828125 29.34375 20.714844 30.160156 20.613281 30.972656 C 20.558594 31.378906 20.515625 31.789062 20.476562 32.199219 C 20.453125 32.375 20.324219 32.5 20.15625 32.492188 C 19.96875 32.484375 19.921875 32.328125 19.910156 32.191406 C 19.867188 31.636719 19.828125 31.078125 19.773438 30.523438 C 19.726562 30.105469 19.65625 29.6875 19.609375 29.265625 C 19.570312 28.863281 19.550781 28.457031 19.523438 28.046875 C 19.519531 27.996094 19.519531 27.933594 19.511719 27.878906 C 19.460938 27.382812 19.40625 26.886719 19.355469 26.390625 C 19.34375 26.265625 19.304688 26.144531 19.28125 26.019531 C 19.277344 25.972656 19.289062 25.933594 19.296875 25.910156 C 19.296875 25.890625 19.304688 25.871094 19.328125 25.769531 C 19.601562 25.710938 19.734375 25.8125 19.757812 25.992188 C 19.796875 26.3125 19.855469 26.632812 19.882812 26.953125 C 19.933594 27.492188 19.953125 28.035156 20.007812 28.574219 C 20.050781 29.039062 20.117188 29.492188 20.167969 29.957031 C 20.1875 30.125 20.203125 30.296875 20.222656 30.464844 L 20.253906 30.199219 C 20.292969 29.859375 20.359375 29.527344 20.402344 29.195312 C 20.460938 28.808594 20.519531 28.425781 20.574219 28.035156 C 20.625 27.679688 20.667969 27.324219 20.714844 26.972656 C 20.753906 26.652344 20.78125 26.332031 20.8125 26.019531 C 20.808594 25.980469 20.808594 25.941406 20.828125 25.902344 C 20.828125 25.890625 20.832031 25.871094 20.839844 25.855469 " fill-opacity="1" fill-rule="nonzero"/><path fill="rgb(9.408569%, 9.408569%, 9.408569%)" d="M 22.246094 26.605469 L 22.542969 26.292969 C 22.511719 26.984375 22.484375 27.492188 22.472656 28.007812 C 22.460938 28.4375 22.464844 28.867188 22.460938 29.304688 C 22.453125 29.6875 22.433594 30.074219 22.425781 30.457031 C 22.425781 30.628906 22.445312 30.796875 22.453125 30.972656 C 22.460938 31.390625 22.472656 31.808594 22.464844 32.230469 C 22.464844 32.324219 22.355469 32.492188 22.21875 32.492188 C 22.054688 32.484375 21.957031 32.367188 21.964844 32.199219 C 21.980469 31.761719 21.984375 31.320312 21.984375 30.882812 C 21.984375 30.394531 21.980469 29.902344 21.980469 29.421875 C 21.980469 29.070312 21.980469 28.71875 21.984375 28.367188 C 21.996094 27.960938 22.03125 27.5625 22.035156 27.167969 C 22.042969 26.789062 22.023438 26.402344 22.011719 26.027344 C 22.011719 25.921875 22.03125 25.710938 22.269531 25.710938 C 22.375 25.710938 22.453125 25.765625 22.484375 25.851562 C 22.5 25.902344 22.5 25.949219 22.503906 26 C 22.519531 26.148438 22.53125 26.300781 22.558594 26.578125 L 22.246094 26.605469 " fill-opacity="1" fill-rule="nonzero"/><path fill="rgb(9.408569%, 9.408569%, 9.408569%)" d="M 24.300781 32.023438 C 24.359375 32.035156 24.40625 32.089844 24.4375 32.132812 C 24.445312 32.152344 24.453125 32.167969 24.464844 32.1875 C 24.464844 32.191406 24.472656 32.207031 24.554688 32.324219 C 24.425781 32.40625 24.40625 32.425781 24.386719 32.441406 C 24.359375 32.453125 24.308594 32.492188 24.242188 32.492188 C 24.121094 32.492188 23.988281 32.472656 23.867188 32.460938 C 23.828125 32.453125 23.792969 32.445312 23.753906 32.441406 C 23.671875 32.433594 23.605469 32.425781 23.558594 32.414062 C 23.402344 32.382812 23.34375 32.289062 23.332031 32.148438 C 23.332031 32.09375 23.332031 32.03125 23.339844 31.9375 C 23.351562 31.644531 23.359375 31.351562 23.363281 31.066406 C 23.371094 30.765625 23.390625 30.472656 23.390625 30.179688 C 23.398438 29.734375 23.382812 29.292969 23.398438 28.847656 C 23.402344 28.425781 23.4375 27.996094 23.441406 27.5625 C 23.449219 27.101562 23.4375 26.636719 23.4375 26.175781 C 23.4375 26.144531 23.421875 26.105469 23.421875 26.070312 C 23.417969 26.011719 23.421875 25.941406 23.460938 25.890625 C 23.535156 25.8125 23.652344 25.730469 23.769531 25.726562 C 24.003906 25.707031 24.242188 25.71875 24.476562 25.710938 C 24.554688 25.710938 24.765625 25.726562 24.769531 25.953125 C 24.769531 26.136719 24.640625 26.226562 24.484375 26.226562 C 24.289062 26.226562 24.101562 26.226562 23.890625 26.226562 L 23.890625 27.71875 C 24.007812 27.707031 24.125 27.699219 24.238281 27.675781 C 24.394531 27.640625 24.515625 27.726562 24.535156 27.863281 C 24.550781 27.957031 24.53125 28.164062 24.300781 28.171875 C 24.160156 28.175781 24.015625 28.191406 23.871094 28.191406 C 23.867188 28.601562 23.851562 29.011719 23.847656 29.421875 C 23.832031 30.074219 23.828125 30.726562 23.8125 31.378906 C 23.8125 31.566406 23.8125 31.753906 23.8125 31.945312 C 23.984375 31.945312 24.152344 31.984375 24.300781 32.023438 " fill-opacity="1" fill-rule="nonzero"/></svg>