<?xml version="1.0" encoding="UTF-8"?><svg xmlns="http://www.w3.org/2000/svg" xmlns:xlink="http://www.w3.org/1999/xlink" contentScriptType="text/ecmascript" width="104.88pt" zoomAndPan="magnify" contentStyleType="text/css" viewBox="0 0 104.88 104.999996" height="104.999996pt" preserveAspectRatio="xMidYMid meet" version="1.2"><defs><clipPath xml:id="clip1" id="clip1"><path d="M 57 3.785156 L 102 3.785156 L 102 61 L 57 61 Z M 57 3.785156 "/></clipPath><clipPath xml:id="clip2" id="clip2"><path d="M 2.667969 27 L 77 27 L 77 101.175781 L 2.667969 101.175781 Z M 2.667969 27 "/></clipPath><clipPath xml:id="clip3" id="clip3"><path d="M 90 62 L 102.304688 62 L 102.304688 100 L 90 100 Z M 90 62 "/></clipPath></defs><g xml:id="surface1" id="surface1"><g clip-rule="nonzero" clip-path="url(#clip1)"><path style=" stroke:none;fill-rule:nonzero;fill:rgb(99.21875%,99.21875%,99.21875%);fill-opacity:1;" d="M 78.0625 3.78125 C 70.683594 3.78125 63.433594 6.730469 59.253906 12.089844 C 58.421875 13.679688 57.707031 15.351562 57.222656 17.070312 C 61.019531 10.9375 68.96875 7.332031 77.121094 7.332031 C 84.960938 7.332031 92.992188 10.664062 97.703125 18.296875 C 100.84375 23.375 101.570312 28.691406 100.167969 34.5625 C 100.164062 34.574219 100.152344 34.632812 100.128906 34.726562 C 100.175781 34.621094 100.195312 34.582031 100.199219 34.582031 C 100.210938 34.582031 100.089844 34.878906 100.082031 34.878906 C 100.082031 34.878906 100.082031 34.867188 100.089844 34.84375 C 100.101562 34.804688 100.109375 34.789062 100.109375 34.789062 C 100.109375 34.789062 99.996094 35.136719 99.941406 35.304688 C 99.652344 36.152344 99.402344 36.824219 99.097656 37.617188 C 97.628906 41.433594 93.960938 49.621094 92.15625 59.539062 L 92.605469 60.03125 C 93.003906 56.59375 93.796875 53.066406 94.304688 51.351562 C 96.308594 44.632812 101.925781 33.980469 101.917969 25.625 C 101.910156 19.644531 99.128906 14.019531 94.898438 10.074219 C 90.292969 5.777344 84.132812 3.78125 78.0625 3.78125 Z M 78.0625 4.453125 C 84.398438 4.453125 90.214844 6.625 94.441406 10.566406 C 98.757812 14.59375 101.238281 20.082031 101.242188 25.628906 C 101.242188 25.636719 101.242188 25.648438 101.242188 25.660156 C 100.796875 22.984375 99.808594 20.425781 98.277344 17.941406 C 93.847656 10.773438 86.136719 6.660156 77.121094 6.660156 C 70.183594 6.660156 63.640625 9.199219 59.371094 13.355469 C 59.515625 13.058594 59.664062 12.757812 59.820312 12.453125 C 61.765625 9.980469 64.5 7.9375 67.726562 6.542969 C 70.890625 5.175781 74.464844 4.453125 78.0625 4.453125 "/></g><g clip-rule="nonzero" clip-path="url(#clip2)"><path style=" stroke:none;fill-rule:nonzero;fill:rgb(99.21875%,99.21875%,99.21875%);fill-opacity:1;" d="M 39.371094 94.402344 C 35.730469 94.402344 32.78125 91.453125 32.78125 87.820312 C 32.78125 84.183594 35.730469 81.238281 39.371094 81.238281 C 43.007812 81.238281 45.960938 84.183594 45.960938 87.820312 C 45.960938 91.453125 43.007812 94.402344 39.371094 94.402344 Z M 39.371094 75.007812 C 38.703125 75.007812 38.160156 74.464844 38.160156 73.796875 C 38.160156 73.128906 38.703125 72.589844 39.371094 72.589844 C 40.039062 72.589844 40.578125 73.128906 40.578125 73.796875 C 40.578125 74.464844 40.039062 75.007812 39.371094 75.007812 Z M 31.347656 70.378906 C 30.929688 70.378906 30.523438 70.164062 30.296875 69.777344 C 29.964844 69.199219 30.164062 68.460938 30.742188 68.125 C 30.933594 68.015625 31.140625 67.964844 31.34375 67.964844 C 31.761719 67.960938 32.171875 68.179688 32.394531 68.566406 C 32.726562 69.144531 32.53125 69.882812 31.953125 70.21875 C 31.761719 70.328125 31.550781 70.378906 31.347656 70.378906 Z M 47.390625 70.378906 C 47.1875 70.378906 46.980469 70.328125 46.789062 70.21875 C 46.210938 69.882812 46.011719 69.144531 46.34375 68.566406 C 46.570312 68.179688 46.976562 67.964844 47.394531 67.964844 C 47.597656 67.964844 47.808594 68.015625 48 68.125 C 48.578125 68.460938 48.773438 69.199219 48.441406 69.777344 C 48.214844 70.164062 47.808594 70.378906 47.390625 70.378906 Z M 19.195312 86.535156 C 15.613281 86.535156 12.128906 84.679688 10.210938 81.359375 C 7.347656 76.40625 9.046875 70.074219 14.003906 67.21875 C 15.636719 66.277344 17.417969 65.828125 19.175781 65.828125 C 22.761719 65.828125 26.246094 67.683594 28.164062 71.007812 C 31.027344 75.957031 29.328125 82.289062 24.371094 85.148438 C 22.738281 86.089844 20.957031 86.535156 19.195312 86.535156 Z M 59.542969 86.535156 C 57.785156 86.535156 56.003906 86.089844 54.371094 85.148438 C 49.410156 82.289062 47.714844 75.957031 50.574219 71.007812 C 52.496094 67.683594 55.980469 65.828125 59.5625 65.828125 C 61.320312 65.828125 63.101562 66.277344 64.734375 67.21875 C 69.695312 70.074219 71.390625 76.40625 68.53125 81.359375 C 66.609375 84.679688 63.125 86.535156 59.542969 86.535156 Z M 39.371094 68.835938 C 36.996094 68.835938 35.070312 66.914062 35.070312 64.546875 C 35.070312 62.175781 36.996094 60.253906 39.371094 60.253906 C 41.742188 60.253906 43.667969 62.175781 43.667969 64.546875 C 43.667969 66.914062 41.742188 68.835938 39.371094 68.835938 Z M 31.34375 61.128906 C 31.140625 61.128906 30.933594 61.074219 30.742188 60.964844 C 30.164062 60.632812 29.964844 59.890625 30.296875 59.316406 C 30.523438 58.925781 30.929688 58.710938 31.347656 58.710938 C 31.550781 58.710938 31.761719 58.761719 31.953125 58.871094 C 32.53125 59.207031 32.726562 59.945312 32.394531 60.523438 C 32.171875 60.910156 31.761719 61.128906 31.34375 61.128906 Z M 47.394531 61.128906 C 46.976562 61.128906 46.570312 60.910156 46.34375 60.523438 C 46.011719 59.945312 46.210938 59.207031 46.789062 58.871094 C 46.980469 58.761719 47.1875 58.710938 47.390625 58.710938 C 47.808594 58.710938 48.214844 58.925781 48.441406 59.316406 C 48.773438 59.890625 48.578125 60.632812 48 60.964844 C 47.808594 61.074219 47.597656 61.128906 47.394531 61.128906 Z M 39.371094 56.5 C 38.703125 56.5 38.160156 55.960938 38.160156 55.292969 C 38.160156 54.625 38.703125 54.085938 39.371094 54.085938 C 40.039062 54.085938 40.578125 54.625 40.578125 55.292969 C 40.578125 55.960938 40.039062 56.5 39.371094 56.5 Z M 19.179688 59.492188 C 18.0625 59.492188 16.929688 59.207031 15.890625 58.609375 C 12.738281 56.789062 11.660156 52.765625 13.480469 49.617188 C 14.699219 47.503906 16.914062 46.324219 19.191406 46.324219 C 20.3125 46.324219 21.445312 46.609375 22.480469 47.207031 C 25.632812 49.027344 26.714844 53.050781 24.894531 56.199219 C 23.671875 58.308594 21.457031 59.492188 19.179688 59.492188 Z M 59.558594 59.492188 C 57.28125 59.492188 55.066406 58.308594 53.84375 56.199219 C 52.027344 53.050781 53.105469 49.027344 56.257812 47.207031 C 57.296875 46.609375 58.429688 46.324219 59.546875 46.324219 C 61.824219 46.324219 64.039062 47.503906 65.261719 49.617188 C 67.078125 52.765625 66 56.789062 62.847656 58.609375 C 61.808594 59.207031 60.675781 59.492188 59.558594 59.492188 Z M 39.371094 51.621094 C 33.644531 51.621094 29.003906 46.988281 29.003906 41.269531 C 29.003906 35.554688 33.644531 30.917969 39.371094 30.917969 C 45.09375 30.917969 49.734375 35.554688 49.734375 41.269531 C 49.734375 46.988281 45.09375 51.621094 39.371094 51.621094 Z M 39.371094 27.921875 C 19.117188 27.921875 2.699219 44.320312 2.699219 64.546875 C 2.699219 84.769531 19.117188 101.167969 39.371094 101.167969 C 59.621094 101.167969 76.039062 84.769531 76.039062 64.546875 C 76.039062 44.320312 59.621094 27.921875 39.371094 27.921875 Z M 39.371094 95.074219 C 43.375 95.074219 46.632812 91.820312 46.632812 87.820312 C 46.632812 83.820312 43.375 80.566406 39.371094 80.566406 C 35.363281 80.566406 32.105469 83.820312 32.105469 87.820312 C 32.105469 91.820312 35.363281 95.074219 39.371094 95.074219 Z M 39.371094 75.675781 C 40.40625 75.675781 41.25 74.835938 41.25 73.796875 C 41.25 72.761719 40.40625 71.917969 39.371094 71.917969 C 38.332031 71.917969 37.488281 72.761719 37.488281 73.796875 C 37.488281 74.835938 38.332031 75.675781 39.371094 75.675781 Z M 31.347656 71.050781 C 31.675781 71.050781 32 70.964844 32.289062 70.800781 C 32.722656 70.546875 33.035156 70.144531 33.164062 69.65625 C 33.292969 69.171875 33.226562 68.667969 32.976562 68.230469 C 32.640625 67.652344 32.015625 67.292969 31.34375 67.292969 C 31.015625 67.292969 30.691406 67.378906 30.40625 67.542969 C 29.96875 67.792969 29.660156 68.199219 29.527344 68.683594 C 29.398438 69.171875 29.464844 69.675781 29.714844 70.109375 C 30.050781 70.691406 30.675781 71.050781 31.347656 71.050781 Z M 47.390625 71.050781 C 48.0625 71.050781 48.6875 70.691406 49.023438 70.109375 C 49.273438 69.675781 49.339844 69.171875 49.210938 68.683594 C 49.082031 68.199219 48.769531 67.792969 48.335938 67.542969 C 48.046875 67.378906 47.722656 67.292969 47.394531 67.292969 C 46.722656 67.292969 46.097656 67.652344 45.761719 68.230469 C 45.511719 68.667969 45.445312 69.171875 45.574219 69.65625 C 45.707031 70.144531 46.015625 70.546875 46.453125 70.800781 C 46.738281 70.964844 47.0625 71.050781 47.390625 71.050781 Z M 19.195312 87.207031 C 21.125 87.207031 23.027344 86.695312 24.707031 85.730469 C 29.976562 82.691406 31.789062 75.933594 28.746094 70.671875 C 26.78125 67.269531 23.113281 65.15625 19.175781 65.15625 C 17.25 65.15625 15.34375 65.667969 13.667969 66.636719 C 8.398438 69.675781 6.585938 76.429688 9.628906 81.695312 C 11.59375 85.097656 15.261719 87.207031 19.195312 87.207031 Z M 59.542969 87.207031 C 63.480469 87.207031 67.144531 85.097656 69.113281 81.695312 C 72.15625 76.429688 70.34375 69.675781 65.070312 66.636719 C 63.394531 65.667969 61.488281 65.15625 59.5625 65.15625 C 55.625 65.15625 51.957031 67.269531 49.992188 70.671875 C 46.949219 75.933594 48.761719 82.691406 54.035156 85.730469 C 55.710938 86.695312 57.617188 87.207031 59.542969 87.207031 Z M 39.371094 69.507812 C 42.109375 69.507812 44.339844 67.28125 44.339844 64.546875 C 44.339844 61.808594 42.109375 59.582031 39.371094 59.582031 C 36.628906 59.582031 34.398438 61.808594 34.398438 64.546875 C 34.398438 67.28125 36.628906 69.507812 39.371094 69.507812 Z M 31.34375 61.800781 C 32.015625 61.800781 32.640625 61.4375 32.976562 60.859375 C 33.226562 60.425781 33.292969 59.917969 33.164062 59.433594 C 33.035156 58.945312 32.722656 58.542969 32.289062 58.289062 C 32 58.125 31.675781 58.039062 31.347656 58.039062 C 30.675781 58.039062 30.050781 58.398438 29.714844 58.980469 C 29.195312 59.875 29.507812 61.027344 30.40625 61.546875 C 30.691406 61.710938 31.015625 61.800781 31.34375 61.800781 Z M 47.394531 61.800781 C 47.722656 61.800781 48.046875 61.710938 48.335938 61.546875 C 49.234375 61.027344 49.542969 59.875 49.023438 58.980469 C 48.6875 58.398438 48.0625 58.039062 47.390625 58.039062 C 47.0625 58.039062 46.738281 58.125 46.453125 58.289062 C 46.015625 58.542969 45.707031 58.945312 45.574219 59.433594 C 45.445312 59.917969 45.511719 60.425781 45.761719 60.859375 C 46.097656 61.4375 46.722656 61.800781 47.394531 61.800781 Z M 39.371094 57.171875 C 40.40625 57.171875 41.25 56.328125 41.25 55.292969 C 41.25 54.257812 40.40625 53.414062 39.371094 53.414062 C 38.332031 53.414062 37.488281 54.257812 37.488281 55.292969 C 37.488281 56.328125 38.332031 57.171875 39.371094 57.171875 Z M 19.179688 60.164062 C 21.769531 60.164062 24.183594 58.773438 25.476562 56.535156 C 26.445312 54.855469 26.703125 52.902344 26.203125 51.03125 C 25.699219 49.160156 24.5 47.59375 22.820312 46.625 C 21.714844 45.988281 20.460938 45.652344 19.191406 45.652344 C 16.601562 45.652344 14.191406 47.042969 12.898438 49.28125 C 10.894531 52.746094 12.085938 57.191406 15.554688 59.191406 C 16.660156 59.824219 17.914062 60.164062 19.179688 60.164062 Z M 59.558594 60.164062 C 60.828125 60.164062 62.082031 59.824219 63.183594 59.191406 C 64.863281 58.21875 66.066406 56.65625 66.566406 54.785156 C 67.070312 52.914062 66.8125 50.957031 65.84375 49.28125 C 64.550781 47.042969 62.136719 45.652344 59.546875 45.652344 C 58.277344 45.652344 57.023438 45.988281 55.921875 46.625 C 54.242188 47.59375 53.039062 49.160156 52.539062 51.03125 C 52.035156 52.902344 52.292969 54.855469 53.261719 56.535156 C 54.554688 58.773438 56.96875 60.164062 59.558594 60.164062 Z M 39.371094 52.292969 C 45.457031 52.292969 50.410156 47.347656 50.410156 41.269531 C 50.410156 35.191406 45.457031 30.246094 39.371094 30.246094 C 33.28125 30.246094 28.332031 35.191406 28.332031 41.269531 C 28.332031 47.347656 33.28125 52.292969 39.371094 52.292969 Z M 39.371094 28.59375 C 44.230469 28.59375 48.945312 29.546875 53.382812 31.417969 C 57.667969 33.230469 61.519531 35.824219 64.824219 39.125 C 68.128906 42.425781 70.726562 46.269531 72.539062 50.550781 C 74.414062 54.984375 75.367188 59.691406 75.367188 64.546875 C 75.367188 69.398438 74.414062 74.105469 72.539062 78.539062 C 70.726562 82.820312 68.128906 86.664062 64.824219 89.964844 C 61.519531 93.269531 57.667969 95.859375 53.382812 97.671875 C 48.945312 99.546875 44.230469 100.496094 39.371094 100.496094 C 34.511719 100.496094 29.796875 99.546875 25.359375 97.671875 C 21.070312 95.859375 17.222656 93.269531 13.917969 89.964844 C 10.609375 86.664062 8.015625 82.820312 6.199219 78.539062 C 4.324219 74.105469 3.371094 69.398438 3.371094 64.546875 C 3.371094 59.691406 4.324219 54.984375 6.199219 50.550781 C 8.015625 46.269531 10.609375 42.425781 13.917969 39.125 C 17.222656 35.824219 21.070312 33.230469 25.359375 31.417969 C 29.796875 29.546875 34.511719 28.59375 39.371094 28.59375 "/></g><g clip-rule="nonzero" clip-path="url(#clip3)"><path style=" stroke:none;fill-rule:nonzero;fill:rgb(99.21875%,99.21875%,99.21875%);fill-opacity:1;" d="M 101.496094 96.066406 C 101.476562 96.125 101.464844 96.171875 101.457031 96.203125 C 101.328125 96.742188 101.128906 97.441406 100.949219 98.007812 C 95.492188 90.949219 92.28125 81.972656 91.714844 72.277344 C 92.820312 81.191406 96.25 89.542969 101.503906 96.03125 C 101.5 96.046875 101.496094 96.058594 101.496094 96.066406 Z M 102.199219 95.820312 C 96.269531 88.601562 92.875 79.367188 92.148438 69.855469 C 92.039062 68.207031 92.183594 65.734375 92.269531 64.023438 C 92.117188 63.75 91.925781 63.324219 91.453125 62.769531 C 91.246094 64.5 90.957031 66.976562 90.964844 67.964844 C 90.722656 79.195312 93.9375 90.558594 101.167969 99.359375 C 101.25 99.359375 101.859375 97.425781 102.109375 96.355469 C 102.136719 96.257812 102.265625 95.902344 102.199219 95.820312 "/></g><path style=" stroke:none;fill-rule:nonzero;fill:rgb(99.21875%,99.21875%,99.21875%);fill-opacity:1;" d="M 91.59375 77.421875 C 87.757812 84.175781 79.972656 90.890625 74.074219 93.707031 C 69.347656 95.964844 64.296875 96.5 58.011719 96.945312 C 57.429688 96.988281 56.855469 97.019531 56.289062 97.042969 C 55.820312 97.285156 55.34375 97.519531 54.863281 97.746094 C 55.917969 97.738281 56.992188 97.695312 58.058594 97.617188 C 64.300781 97.175781 69.464844 96.652344 74.363281 94.3125 C 78.777344 92.207031 84.300781 87.917969 88.464844 82.996094 C 84.347656 88.804688 77.992188 94.101562 72.894531 96.570312 C 68.5 98.699219 63.585938 99.265625 59.324219 99.628906 C 55.648438 99.941406 51.894531 100.132812 48.164062 100.199219 C 48.128906 100.195312 48.03125 100.1875 47.882812 100.171875 C 47.289062 100.3125 46.6875 100.441406 46.082031 100.550781 C 47.386719 100.835938 48.152344 100.871094 48.152344 100.871094 C 51.902344 100.804688 55.648438 100.613281 59.382812 100.296875 C 64.113281 99.894531 68.871094 99.265625 73.1875 97.175781 C 79.886719 93.929688 88.351562 86.171875 91.800781 78.628906 C 91.730469 78.226562 91.660156 77.824219 91.59375 77.421875 "/><path style=" stroke:none;fill-rule:nonzero;fill:rgb(99.21875%,99.21875%,99.21875%);fill-opacity:1;" d="M 34.152344 91.839844 C 35.359375 93.398438 37.246094 94.402344 39.371094 94.402344 C 39.453125 94.402344 39.53125 94.398438 39.613281 94.394531 C 37.535156 93.609375 35.710938 92.722656 34.152344 91.839844 "/><path style=" stroke:none;fill-rule:nonzero;fill:rgb(99.21875%,99.21875%,99.21875%);fill-opacity:1;" d="M 93.585938 73.179688 C 93.585938 73.175781 93.589844 73.171875 93.589844 73.167969 C 93.597656 73.140625 93.617188 73.085938 93.617188 73.085938 C 93.617188 73.085938 93.609375 73.109375 93.585938 73.179688 Z M 93.402344 73.804688 C 93.402344 73.816406 93.398438 73.824219 93.398438 73.832031 C 93.398438 73.824219 93.417969 73.722656 93.417969 73.722656 C 93.417969 73.722656 93.414062 73.742188 93.402344 73.804688 Z M 83.039062 51.703125 C 76.566406 47.433594 71.023438 42.96875 65.777344 38.085938 C 55.808594 29.59375 57.109375 16.5 59.253906 12.089844 C 55.5 17.566406 55.542969 27.546875 58.039062 33.023438 C 58.410156 33.242188 58.777344 33.464844 59.140625 33.695312 C 57.9375 31.625 57.140625 28.46875 56.984375 24.917969 C 56.925781 23.609375 56.957031 22.324219 57.074219 21.078125 C 57.296875 26.804688 59.429688 33.558594 65.332031 38.585938 C 70.890625 43.761719 76.5625 48.234375 82.667969 52.265625 C 83.15625 52.585938 83.65625 52.910156 84.136719 53.21875 C 87.273438 55.25 90.234375 57.171875 92.140625 59.898438 C 93.589844 61.976562 94.265625 64.3125 94.1875 67.078125 C 93.914062 65.890625 93.472656 64.765625 92.855469 63.691406 C 92.832031 63.648438 92.804688 63.601562 92.777344 63.546875 C 92.628906 63.269531 92.40625 62.855469 91.976562 62.351562 C 90.085938 59.808594 87.398438 57.945312 84.804688 56.257812 C 82.921875 55.03125 76.035156 49.09375 69.960938 43.851562 C 69.675781 43.605469 69.390625 43.359375 69.105469 43.113281 C 69.601562 43.800781 70.074219 44.503906 70.523438 45.222656 C 76.457031 50.339844 82.621094 55.636719 84.4375 56.820312 C 86.972656 58.472656 89.613281 60.289062 91.453125 62.769531 C 91.925781 63.324219 92.117188 63.75 92.269531 64.023438 C 93.609375 66.351562 94.238281 69.230469 93.578125 72.96875 C 93.402344 73.957031 93.507812 73.175781 92.863281 75.289062 C 92.894531 75.449219 92.929688 75.609375 92.960938 75.765625 C 93.464844 74.332031 93.886719 72.867188 94.242188 71.390625 C 97.054688 59.816406 89.738281 56.125 83.039062 51.703125 "/><path style=" stroke:none;fill-rule:nonzero;fill:rgb(99.21875%,99.21875%,99.21875%);fill-opacity:1;" d="M 63.308594 58.316406 C 63.390625 58.257812 63.472656 58.195312 63.554688 58.136719 C 62.402344 53.796875 60.105469 49.914062 57.007812 46.835938 C 56.914062 46.878906 56.820312 46.921875 56.726562 46.964844 C 59.851562 50.042969 62.164062 53.945312 63.308594 58.316406 "/><path style=" stroke:none;fill-rule:nonzero;fill:rgb(99.21875%,99.21875%,99.21875%);fill-opacity:1;" d="M 39.371094 39.554688 C 35.679688 39.554688 32.171875 40.359375 29.015625 41.796875 C 29.023438 41.898438 29.03125 42 29.039062 42.101562 C 32.1875 40.652344 35.683594 39.84375 39.371094 39.84375 C 43.054688 39.84375 46.554688 40.652344 49.699219 42.101562 C 49.707031 42 49.71875 41.898438 49.722656 41.796875 C 46.566406 40.359375 43.058594 39.554688 39.371094 39.554688 "/><path style=" stroke:none;fill-rule:nonzero;fill:rgb(99.21875%,99.21875%,99.21875%);fill-opacity:1;" d="M 22.015625 46.964844 C 21.921875 46.921875 21.828125 46.878906 21.734375 46.835938 C 18.632812 49.914062 16.339844 53.796875 15.183594 58.136719 C 15.265625 58.195312 15.347656 58.257812 15.433594 58.316406 C 16.574219 53.945312 18.886719 50.042969 22.015625 46.964844 "/><path style=" stroke:none;fill-rule:nonzero;fill:rgb(99.21875%,99.21875%,99.21875%);fill-opacity:1;" d="M 64.273438 66.96875 C 64.179688 66.921875 64.089844 66.875 63.996094 66.832031 C 63.316406 74.195312 59.390625 80.632812 53.660156 84.695312 C 53.742188 84.753906 53.824219 84.8125 53.910156 84.867188 C 59.632812 80.773438 63.558594 74.332031 64.273438 66.96875 "/><path style=" stroke:none;fill-rule:nonzero;fill:rgb(99.21875%,99.21875%,99.21875%);fill-opacity:1;" d="M 14.742188 66.832031 C 14.652344 66.875 14.558594 66.917969 14.46875 66.96875 C 15.179688 74.332031 19.105469 80.773438 24.828125 84.867188 C 24.914062 84.8125 24.996094 84.753906 25.078125 84.695312 C 19.351562 80.632812 15.421875 74.195312 14.742188 66.832031 "/><path style=" stroke:none;fill-rule:nonzero;fill:rgb(99.21875%,99.21875%,99.21875%);fill-opacity:1;" d="M 39.371094 89.53125 C 41.628906 89.53125 43.820312 89.230469 45.902344 88.667969 C 45.917969 88.566406 45.929688 88.464844 45.9375 88.359375 C 43.84375 88.9375 41.644531 89.246094 39.371094 89.246094 C 37.097656 89.246094 34.894531 88.9375 32.804688 88.359375 C 32.8125 88.464844 32.824219 88.566406 32.835938 88.667969 C 34.917969 89.230469 37.109375 89.53125 39.371094 89.53125 "/><path style=" stroke:none;fill-rule:nonzero;fill:rgb(99.21875%,99.21875%,99.21875%);fill-opacity:1;" d="M 28.339844 81.042969 C 28.382812 80.957031 28.429688 80.875 28.46875 80.789062 C 23.574219 77.5 20.242188 72.066406 19.828125 65.847656 C 19.734375 65.84375 19.636719 65.839844 19.539062 65.835938 C 19.949219 72.171875 23.347656 77.703125 28.339844 81.042969 "/><path style=" stroke:none;fill-rule:nonzero;fill:rgb(99.21875%,99.21875%,99.21875%);fill-opacity:1;" d="M 44.519531 83.714844 C 44.453125 83.632812 44.386719 83.550781 44.316406 83.472656 C 42.734375 83.882812 41.078125 84.105469 39.371094 84.105469 C 37.664062 84.105469 36.003906 83.882812 34.425781 83.472656 C 34.355469 83.550781 34.285156 83.632812 34.222656 83.714844 C 35.863281 84.15625 37.589844 84.390625 39.371094 84.390625 C 41.148438 84.390625 42.875 84.15625 44.519531 83.714844 "/><path style=" stroke:none;fill-rule:nonzero;fill:rgb(99.21875%,99.21875%,99.21875%);fill-opacity:1;" d="M 39.371094 82.390625 C 38.261719 82.390625 37.175781 82.285156 36.125 82.09375 C 36 82.164062 35.878906 82.238281 35.757812 82.316406 C 36.925781 82.550781 38.132812 82.675781 39.371094 82.675781 C 40.605469 82.675781 41.8125 82.550781 42.980469 82.316406 C 42.863281 82.238281 42.738281 82.164062 42.617188 82.09375 C 41.5625 82.285156 40.476562 82.390625 39.371094 82.390625 "/><path style=" stroke:none;fill-rule:nonzero;fill:rgb(99.21875%,99.21875%,99.21875%);fill-opacity:1;" d="M 39.371094 83.25 C 37.917969 83.25 36.503906 83.082031 35.148438 82.769531 C 35.058594 82.84375 34.96875 82.921875 34.886719 83 C 36.324219 83.347656 37.824219 83.535156 39.371094 83.535156 C 40.914062 83.535156 42.417969 83.347656 43.855469 83 C 43.769531 82.921875 43.683594 82.84375 43.59375 82.769531 C 42.234375 83.082031 40.820312 83.25 39.371094 83.25 "/><path style=" stroke:none;fill-rule:nonzero;fill:rgb(99.21875%,99.21875%,99.21875%);fill-opacity:1;" d="M 28.714844 80.265625 C 28.753906 80.171875 28.789062 80.082031 28.824219 79.992188 C 24.25 76.867188 21.128906 71.773438 20.695312 65.941406 C 20.601562 65.925781 20.503906 65.914062 20.40625 65.902344 C 20.832031 71.871094 24.027344 77.082031 28.714844 80.265625 "/><path style=" stroke:none;fill-rule:nonzero;fill:rgb(99.21875%,99.21875%,99.21875%);fill-opacity:1;" d="M 25.765625 52.550781 C 24.175781 54.347656 22.9375 56.460938 22.15625 58.78125 C 22.28125 58.71875 22.40625 58.648438 22.53125 58.578125 C 23.269531 56.507812 24.375 54.617188 25.777344 52.976562 C 25.777344 52.835938 25.773438 52.691406 25.765625 52.550781 "/><path style=" stroke:none;fill-rule:nonzero;fill:rgb(99.21875%,99.21875%,99.21875%);fill-opacity:1;" d="M 23.367188 57.996094 C 23.542969 57.847656 23.714844 57.691406 23.878906 57.527344 C 24.339844 56.515625 24.898438 55.558594 25.539062 54.667969 C 25.601562 54.441406 25.652344 54.21875 25.6875 53.988281 C 24.746094 55.207031 23.960938 56.550781 23.367188 57.996094 "/><path style=" stroke:none;fill-rule:nonzero;fill:rgb(99.21875%,99.21875%,99.21875%);fill-opacity:1;" d="M 45.039062 84.460938 C 44.984375 84.375 44.933594 84.289062 44.878906 84.207031 C 43.125 84.699219 41.277344 84.960938 39.371094 84.960938 C 37.460938 84.960938 35.613281 84.699219 33.863281 84.207031 C 33.808594 84.289062 33.753906 84.375 33.703125 84.460938 C 35.503906 84.972656 37.40625 85.246094 39.371094 85.246094 C 41.332031 85.246094 43.234375 84.972656 45.039062 84.460938 "/><path style=" stroke:none;fill-rule:nonzero;fill:rgb(99.21875%,99.21875%,99.21875%);fill-opacity:1;" d="M 39.371094 81.53125 C 38.808594 81.53125 38.253906 81.503906 37.703125 81.449219 C 37.476562 81.507812 37.257812 81.582031 37.042969 81.660156 C 37.804688 81.765625 38.582031 81.820312 39.371094 81.820312 C 40.160156 81.820312 40.9375 81.765625 41.699219 81.660156 C 41.480469 81.582031 41.261719 81.507812 41.035156 81.449219 C 40.488281 81.503906 39.933594 81.53125 39.371094 81.53125 "/><path style=" stroke:none;fill-rule:nonzero;fill:rgb(99.21875%,99.21875%,99.21875%);fill-opacity:1;" d="M 39.371094 44.699219 C 36.214844 44.699219 33.230469 45.441406 30.578125 46.753906 C 30.628906 46.832031 30.679688 46.914062 30.734375 46.996094 C 33.339844 45.710938 36.273438 44.988281 39.371094 44.988281 C 42.46875 44.988281 45.398438 45.710938 48.007812 46.996094 C 48.058594 46.914062 48.109375 46.832031 48.164062 46.753906 C 45.511719 45.441406 42.523438 44.699219 39.371094 44.699219 "/><path style=" stroke:none;fill-rule:nonzero;fill:rgb(99.21875%,99.21875%,99.21875%);fill-opacity:1;" d="M 39.371094 43.84375 C 36.0625 43.84375 32.929688 44.625 30.152344 46.007812 C 30.195312 46.089844 30.242188 46.175781 30.285156 46.261719 C 33.023438 44.898438 36.109375 44.128906 39.371094 44.128906 C 42.632812 44.128906 45.714844 44.898438 48.453125 46.257812 C 48.5 46.175781 48.542969 46.089844 48.585938 46.007812 C 45.808594 44.625 42.679688 43.84375 39.371094 43.84375 "/><path style=" stroke:none;fill-rule:nonzero;fill:rgb(99.21875%,99.21875%,99.21875%);fill-opacity:1;" d="M 27.902344 81.785156 C 27.957031 81.703125 28.007812 81.625 28.058594 81.542969 C 22.894531 78.101562 19.378906 72.382812 18.96875 65.832031 C 18.871094 65.832031 18.777344 65.835938 18.679688 65.839844 C 19.09375 72.488281 22.664062 78.292969 27.902344 81.785156 "/><path style=" stroke:none;fill-rule:nonzero;fill:rgb(99.21875%,99.21875%,99.21875%);fill-opacity:1;" d="M 17.828125 59.347656 C 18.847656 55.148438 21.0625 51.410156 24.101562 48.523438 C 24.039062 48.449219 23.972656 48.382812 23.90625 48.3125 C 20.828125 51.238281 18.578125 55.027344 17.550781 59.285156 C 17.644531 59.308594 17.738281 59.328125 17.828125 59.347656 "/><path style=" stroke:none;fill-rule:nonzero;fill:rgb(99.21875%,99.21875%,99.21875%);fill-opacity:1;" d="M 51.882812 83.148438 C 57.472656 79.382812 61.28125 73.175781 61.761719 66.066406 C 61.667969 66.046875 61.574219 66.027344 61.480469 66.007812 C 61.015625 73.054688 57.238281 79.210938 51.691406 82.929688 C 51.753906 83.003906 51.816406 83.078125 51.882812 83.148438 "/><path style=" stroke:none;fill-rule:nonzero;fill:rgb(99.21875%,99.21875%,99.21875%);fill-opacity:1;" d="M 24.632812 49.199219 C 24.578125 49.121094 24.523438 49.042969 24.464844 48.964844 C 21.53125 51.765625 19.386719 55.378906 18.394531 59.441406 C 18.492188 59.453125 18.585938 59.460938 18.683594 59.46875 C 19.660156 55.492188 21.761719 51.949219 24.632812 49.199219 "/><path style=" stroke:none;fill-rule:nonzero;fill:rgb(99.21875%,99.21875%,99.21875%);fill-opacity:1;" d="M 19.5625 59.476562 C 20.507812 55.808594 22.449219 52.535156 25.078125 49.960938 C 25.035156 49.871094 24.988281 49.785156 24.941406 49.699219 C 22.222656 52.332031 20.222656 55.707031 19.265625 59.488281 C 19.367188 59.488281 19.464844 59.484375 19.5625 59.476562 "/><path style=" stroke:none;fill-rule:nonzero;fill:rgb(99.21875%,99.21875%,99.21875%);fill-opacity:1;" d="M 22.792969 47.402344 C 22.714844 47.347656 22.628906 47.296875 22.542969 47.246094 C 19.382812 50.3125 17.054688 54.234375 15.941406 58.632812 C 16.027344 58.683594 16.113281 58.730469 16.203125 58.773438 C 17.300781 54.375 19.628906 50.457031 22.792969 47.402344 "/><path style=" stroke:none;fill-rule:nonzero;fill:rgb(99.21875%,99.21875%,99.21875%);fill-opacity:1;" d="M 23.488281 47.921875 C 23.414062 47.859375 23.339844 47.796875 23.265625 47.738281 C 20.109375 50.753906 17.800781 54.644531 16.730469 59.015625 C 16.820312 59.050781 16.910156 59.085938 17 59.117188 C 18.058594 54.773438 20.351562 50.910156 23.488281 47.921875 "/><path style=" stroke:none;fill-rule:nonzero;fill:rgb(99.21875%,99.21875%,99.21875%);fill-opacity:1;" d="M 53.050781 53.988281 C 53.089844 54.21875 53.136719 54.445312 53.199219 54.667969 C 53.839844 55.558594 54.398438 56.515625 54.855469 57.523438 C 55.023438 57.691406 55.195312 57.847656 55.375 57.996094 C 54.777344 56.550781 53.996094 55.207031 53.050781 53.988281 "/><path style=" stroke:none;fill-rule:nonzero;fill:rgb(99.21875%,99.21875%,99.21875%);fill-opacity:1;" d="M 60.910156 59.347656 C 61.003906 59.328125 61.097656 59.308594 61.1875 59.285156 C 60.160156 55.027344 57.910156 51.238281 54.832031 48.3125 C 54.765625 48.382812 54.703125 48.449219 54.636719 48.523438 C 57.675781 51.410156 59.894531 55.148438 60.910156 59.347656 "/><path style=" stroke:none;fill-rule:nonzero;fill:rgb(99.21875%,99.21875%,99.21875%);fill-opacity:1;" d="M 51.15625 82.253906 C 51.214844 82.332031 51.269531 82.410156 51.328125 82.484375 C 56.769531 78.855469 60.476562 72.824219 60.914062 65.917969 C 60.816406 65.90625 60.722656 65.894531 60.628906 65.882812 C 60.199219 72.710938 56.539062 78.671875 51.15625 82.253906 "/><path style=" stroke:none;fill-rule:nonzero;fill:rgb(99.21875%,99.21875%,99.21875%);fill-opacity:1;" d="M 21.460938 59.082031 C 22.300781 56.332031 23.765625 53.851562 25.683594 51.796875 C 25.664062 51.679688 25.640625 51.566406 25.613281 51.453125 C 23.550781 53.613281 21.992188 56.257812 21.128906 59.195312 C 21.238281 59.160156 21.351562 59.121094 21.460938 59.082031 "/><path style=" stroke:none;fill-rule:nonzero;fill:rgb(99.21875%,99.21875%,99.21875%);fill-opacity:1;" d="M 29.449219 77.625 C 29.464844 77.515625 29.480469 77.40625 29.492188 77.296875 C 26.21875 74.761719 23.941406 71 23.363281 66.707031 C 23.261719 66.664062 23.160156 66.617188 23.054688 66.578125 C 23.617188 71.074219 26.003906 75.011719 29.449219 77.625 "/><path style=" stroke:none;fill-rule:nonzero;fill:rgb(99.21875%,99.21875%,99.21875%);fill-opacity:1;" d="M 21.570312 66.109375 C 21.472656 66.085938 21.375 66.0625 21.277344 66.042969 C 21.734375 71.585938 24.695312 76.425781 29.027344 79.4375 C 29.058594 79.339844 29.085938 79.246094 29.113281 79.148438 C 24.917969 76.199219 22.042969 71.496094 21.570312 66.109375 "/><path style=" stroke:none;fill-rule:nonzero;fill:rgb(99.21875%,99.21875%,99.21875%);fill-opacity:1;" d="M 29.273438 78.5625 C 29.296875 78.460938 29.320312 78.359375 29.339844 78.257812 C 25.574219 75.5 22.976562 71.234375 22.457031 66.359375 C 22.359375 66.324219 22.257812 66.292969 22.160156 66.265625 C 22.660156 71.320312 25.355469 75.738281 29.273438 78.5625 "/><path style=" stroke:none;fill-rule:nonzero;fill:rgb(99.21875%,99.21875%,99.21875%);fill-opacity:1;" d="M 39.371094 46.414062 C 36.601562 46.414062 33.976562 47.035156 31.625 48.148438 C 31.691406 48.222656 31.757812 48.296875 31.828125 48.371094 C 34.121094 47.300781 36.675781 46.699219 39.371094 46.699219 C 42.0625 46.699219 44.617188 47.300781 46.910156 48.371094 C 46.980469 48.296875 47.046875 48.222656 47.113281 48.148438 C 44.765625 47.035156 42.140625 46.414062 39.371094 46.414062 "/><path style=" stroke:none;fill-rule:nonzero;fill:rgb(99.21875%,99.21875%,99.21875%);fill-opacity:1;" d="M 20.484375 59.359375 C 21.386719 56.09375 23.117188 53.164062 25.433594 50.816406 C 25.402344 50.714844 25.363281 50.617188 25.328125 50.519531 C 22.894531 52.945312 21.089844 56 20.171875 59.414062 C 20.277344 59.398438 20.382812 59.378906 20.484375 59.359375 "/><path style=" stroke:none;fill-rule:nonzero;fill:rgb(99.21875%,99.21875%,99.21875%);fill-opacity:1;" d="M 31.066406 47.464844 C 31.125 47.542969 31.183594 47.621094 31.246094 47.695312 C 33.703125 46.507812 36.460938 45.84375 39.371094 45.84375 C 42.277344 45.84375 45.035156 46.511719 47.492188 47.695312 C 47.554688 47.621094 47.617188 47.542969 47.675781 47.464844 C 45.164062 46.242188 42.347656 45.554688 39.371094 45.554688 C 36.394531 45.554688 33.574219 46.242188 31.066406 47.464844 "/><path style=" stroke:none;fill-rule:nonzero;fill:rgb(99.21875%,99.21875%,99.21875%);fill-opacity:1;" d="M 63.445312 66.585938 C 63.351562 66.550781 63.261719 66.511719 63.167969 66.476562 C 62.578125 73.796875 58.664062 80.191406 52.9375 84.152344 C 53.015625 84.214844 53.09375 84.277344 53.171875 84.339844 C 58.902344 80.34375 62.828125 73.925781 63.445312 66.585938 "/><path style=" stroke:none;fill-rule:nonzero;fill:rgb(99.21875%,99.21875%,99.21875%);fill-opacity:1;" d="M 62.609375 66.289062 C 62.515625 66.257812 62.417969 66.234375 62.324219 66.207031 C 61.808594 73.417969 57.945312 79.71875 52.28125 83.566406 C 52.351562 83.632812 52.425781 83.699219 52.496094 83.765625 C 58.183594 79.878906 62.066406 73.542969 62.609375 66.289062 "/><path style=" stroke:none;fill-rule:nonzero;fill:rgb(99.21875%,99.21875%,99.21875%);fill-opacity:1;" d="M 62.535156 58.773438 C 62.625 58.730469 62.710938 58.683594 62.796875 58.632812 C 61.683594 54.234375 59.359375 50.3125 56.195312 47.246094 C 56.109375 47.296875 56.027344 47.347656 55.945312 47.398438 C 59.113281 50.457031 61.4375 54.375 62.535156 58.773438 "/><path style=" stroke:none;fill-rule:nonzero;fill:rgb(99.21875%,99.21875%,99.21875%);fill-opacity:1;" d="M 61.734375 59.117188 C 61.824219 59.085938 61.914062 59.050781 62.003906 59.015625 C 60.933594 54.644531 58.625 50.753906 55.472656 47.738281 C 55.398438 47.796875 55.324219 47.859375 55.25 47.921875 C 58.386719 50.914062 60.679688 54.777344 61.734375 59.117188 "/><path style=" stroke:none;fill-rule:nonzero;fill:rgb(99.21875%,99.21875%,99.21875%);fill-opacity:1;" d="M 45.714844 86.050781 C 45.691406 85.957031 45.664062 85.867188 45.632812 85.773438 C 43.648438 86.359375 41.546875 86.675781 39.371094 86.675781 C 37.195312 86.675781 35.09375 86.359375 33.105469 85.773438 C 33.074219 85.863281 33.046875 85.957031 33.023438 86.050781 C 35.035156 86.644531 37.167969 86.964844 39.371094 86.964844 C 41.574219 86.964844 43.703125 86.644531 45.714844 86.050781 "/><path style=" stroke:none;fill-rule:nonzero;fill:rgb(99.21875%,99.21875%,99.21875%);fill-opacity:1;" d="M 29.492188 44.417969 C 29.523438 44.511719 29.554688 44.601562 29.585938 44.691406 C 32.539062 43.234375 35.859375 42.414062 39.371094 42.414062 C 42.878906 42.414062 46.203125 43.234375 49.152344 44.691406 C 49.183594 44.601562 49.21875 44.511719 49.246094 44.417969 C 46.265625 42.953125 42.910156 42.128906 39.371094 42.128906 C 35.828125 42.128906 32.476562 42.953125 29.492188 44.417969 "/><path style=" stroke:none;fill-rule:nonzero;fill:rgb(99.21875%,99.21875%,99.21875%);fill-opacity:1;" d="M 26.859375 83.148438 C 26.921875 83.078125 26.984375 83.003906 27.046875 82.929688 C 21.503906 79.210938 17.722656 73.054688 17.261719 66.007812 C 17.167969 66.027344 17.070312 66.046875 16.976562 66.066406 C 17.457031 73.171875 21.265625 79.382812 26.859375 83.148438 "/><path style=" stroke:none;fill-rule:nonzero;fill:rgb(99.21875%,99.21875%,99.21875%);fill-opacity:1;" d="M 39.371094 88.675781 C 41.652344 88.675781 43.863281 88.359375 45.957031 87.765625 C 45.957031 87.664062 45.957031 87.566406 45.949219 87.46875 C 43.859375 88.066406 41.652344 88.390625 39.371094 88.390625 C 37.089844 88.390625 34.878906 88.066406 32.789062 87.46875 C 32.785156 87.566406 32.78125 87.664062 32.78125 87.765625 C 34.875 88.359375 37.085938 88.675781 39.371094 88.675781 "/><path style=" stroke:none;fill-rule:nonzero;fill:rgb(99.21875%,99.21875%,99.21875%);fill-opacity:1;" d="M 45.894531 86.890625 C 45.878906 86.792969 45.863281 86.699219 45.847656 86.605469 C 43.789062 87.207031 41.617188 87.535156 39.371094 87.535156 C 37.121094 87.535156 34.949219 87.207031 32.894531 86.605469 C 32.875 86.699219 32.859375 86.792969 32.847656 86.890625 C 34.917969 87.496094 37.105469 87.820312 39.371094 87.820312 C 41.632812 87.820312 43.824219 87.496094 45.894531 86.890625 "/><path style=" stroke:none;fill-rule:nonzero;fill:rgb(99.21875%,99.21875%,99.21875%);fill-opacity:1;" d="M 26.457031 83.566406 C 20.792969 79.71875 16.929688 73.417969 16.410156 66.207031 C 16.316406 66.234375 16.222656 66.261719 16.128906 66.289062 C 16.671875 73.542969 20.554688 79.878906 26.242188 83.765625 C 26.316406 83.699219 26.386719 83.632812 26.457031 83.566406 "/><path style=" stroke:none;fill-rule:nonzero;fill:rgb(99.21875%,99.21875%,99.21875%);fill-opacity:1;" d="M 29.265625 43.574219 C 29.285156 43.671875 29.308594 43.765625 29.332031 43.863281 C 32.367188 42.386719 35.773438 41.558594 39.371094 41.558594 C 42.964844 41.558594 46.371094 42.386719 49.410156 43.863281 C 49.433594 43.769531 49.453125 43.671875 49.472656 43.578125 C 46.414062 42.101562 42.988281 41.273438 39.371094 41.273438 C 35.753906 41.273438 32.324219 42.097656 29.265625 43.574219 "/><path style=" stroke:none;fill-rule:nonzero;fill:rgb(99.21875%,99.21875%,99.21875%);fill-opacity:1;" d="M 39.371094 40.414062 C 35.703125 40.414062 32.222656 41.238281 29.105469 42.703125 C 29.117188 42.800781 29.132812 42.902344 29.148438 43 C 32.25 41.527344 35.714844 40.703125 39.371094 40.703125 C 43.023438 40.703125 46.488281 41.527344 49.589844 43 C 49.605469 42.902344 49.621094 42.800781 49.632812 42.703125 C 46.515625 41.238281 43.039062 40.414062 39.371094 40.414062 "/><path style=" stroke:none;fill-rule:nonzero;fill:rgb(99.21875%,99.21875%,99.21875%);fill-opacity:1;" d="M 15.574219 66.476562 C 15.480469 66.511719 15.386719 66.550781 15.292969 66.585938 C 15.914062 73.925781 19.835938 80.34375 25.566406 84.339844 C 25.644531 84.277344 25.722656 84.214844 25.800781 84.152344 C 20.078125 80.191406 16.164062 73.796875 15.574219 66.476562 "/><path style=" stroke:none;fill-rule:nonzero;fill:rgb(99.21875%,99.21875%,99.21875%);fill-opacity:1;" d="M 27.410156 82.484375 C 27.46875 82.410156 27.527344 82.332031 27.582031 82.253906 C 22.203125 78.671875 18.539062 72.710938 18.113281 65.882812 C 18.015625 65.894531 17.921875 65.90625 17.828125 65.917969 C 18.265625 72.824219 21.96875 78.855469 27.410156 82.484375 "/><path style=" stroke:none;fill-rule:nonzero;fill:rgb(99.21875%,99.21875%,99.21875%);fill-opacity:1;" d="M 29.789062 45.226562 C 29.828125 45.316406 29.867188 45.402344 29.90625 45.492188 C 32.757812 44.070312 35.972656 43.269531 39.371094 43.269531 C 42.769531 43.269531 45.980469 44.070312 48.835938 45.492188 C 48.875 45.402344 48.914062 45.316406 48.949219 45.226562 C 46.0625 43.792969 42.808594 42.984375 39.371094 42.984375 C 35.929688 42.984375 32.679688 43.792969 29.789062 45.226562 "/><path style=" stroke:none;fill-rule:nonzero;fill:rgb(99.21875%,99.21875%,99.21875%);fill-opacity:1;" d="M 45.433594 85.238281 C 45.394531 85.148438 45.355469 85.0625 45.3125 84.972656 C 43.425781 85.523438 41.433594 85.816406 39.371094 85.816406 C 37.308594 85.816406 35.3125 85.523438 33.425781 84.972656 C 33.382812 85.058594 33.34375 85.148438 33.308594 85.238281 C 35.230469 85.800781 37.265625 86.105469 39.371094 86.105469 C 41.472656 86.105469 43.507812 85.800781 45.433594 85.238281 "/><path style=" stroke:none;fill-rule:nonzero;fill:rgb(99.21875%,99.21875%,99.21875%);fill-opacity:1;" d="M 39.371094 48.128906 C 37.105469 48.128906 34.945312 48.589844 32.980469 49.417969 C 33.066406 49.488281 33.15625 49.554688 33.246094 49.621094 C 35.136719 48.84375 37.203125 48.414062 39.371094 48.414062 C 41.539062 48.414062 43.605469 48.84375 45.496094 49.621094 C 45.582031 49.554688 45.671875 49.488281 45.757812 49.421875 C 43.792969 48.589844 41.636719 48.128906 39.371094 48.128906 "/><path style=" stroke:none;fill-rule:nonzero;fill:rgb(99.21875%,99.21875%,99.21875%);fill-opacity:1;" d="M 39.371094 47.273438 C 36.835938 47.273438 34.429688 47.820312 32.261719 48.800781 C 32.335938 48.871094 32.414062 48.941406 32.492188 49.011719 C 34.59375 48.078125 36.921875 47.558594 39.371094 47.558594 C 41.816406 47.558594 44.144531 48.078125 46.25 49.011719 C 46.328125 48.941406 46.402344 48.871094 46.480469 48.800781 C 44.308594 47.820312 41.902344 47.273438 39.371094 47.273438 "/><path style=" stroke:none;fill-rule:nonzero;fill:rgb(99.21875%,99.21875%,99.21875%);fill-opacity:1;" d="M 50.683594 81.542969 C 50.730469 81.625 50.785156 81.703125 50.835938 81.785156 C 56.078125 78.296875 59.644531 72.488281 60.058594 65.839844 C 59.960938 65.835938 59.867188 65.832031 59.773438 65.832031 C 59.363281 72.382812 55.847656 78.101562 50.683594 81.542969 "/><path style=" stroke:none;fill-rule:nonzero;fill:rgb(99.21875%,99.21875%,99.21875%);fill-opacity:1;" d="M 53.125 51.453125 C 53.101562 51.566406 53.078125 51.679688 53.058594 51.796875 C 54.976562 53.847656 56.4375 56.332031 57.277344 59.082031 C 57.390625 59.121094 57.5 59.160156 57.613281 59.195312 C 56.746094 56.257812 55.1875 53.613281 53.125 51.453125 "/><path style=" stroke:none;fill-rule:nonzero;fill:rgb(99.21875%,99.21875%,99.21875%);fill-opacity:1;" d="M 52.972656 52.550781 C 52.964844 52.691406 52.960938 52.835938 52.964844 52.976562 C 54.363281 54.617188 55.472656 56.507812 56.210938 58.578125 C 56.332031 58.648438 56.457031 58.71875 56.582031 58.78125 C 55.800781 56.460938 54.5625 54.347656 52.972656 52.550781 "/><path style=" stroke:none;fill-rule:nonzero;fill:rgb(99.21875%,99.21875%,99.21875%);fill-opacity:1;" d="M 54.273438 48.964844 C 54.21875 49.042969 54.160156 49.121094 54.105469 49.199219 C 56.976562 51.949219 59.078125 55.492188 60.058594 59.46875 C 60.152344 59.460938 60.25 59.453125 60.347656 59.441406 C 59.355469 55.378906 57.207031 51.765625 54.273438 48.964844 "/><path style=" stroke:none;fill-rule:nonzero;fill:rgb(99.21875%,99.21875%,99.21875%);fill-opacity:1;" d="M 53.800781 49.699219 C 53.75 49.785156 53.703125 49.871094 53.660156 49.960938 C 56.292969 52.535156 58.234375 55.808594 59.175781 59.476562 C 59.273438 59.484375 59.375 59.488281 59.472656 59.488281 C 58.519531 55.707031 56.519531 52.332031 53.800781 49.699219 "/><path style=" stroke:none;fill-rule:nonzero;fill:rgb(99.21875%,99.21875%,99.21875%);fill-opacity:1;" d="M 53.414062 50.519531 C 53.375 50.617188 53.339844 50.71875 53.304688 50.816406 C 55.621094 53.164062 57.351562 56.09375 58.25 59.359375 C 58.355469 59.378906 58.460938 59.394531 58.5625 59.410156 C 57.648438 56 55.84375 52.949219 53.414062 50.519531 "/><path style=" stroke:none;fill-rule:nonzero;fill:rgb(99.21875%,99.21875%,99.21875%);fill-opacity:1;" d="M 49.917969 79.992188 C 49.953125 80.082031 49.988281 80.175781 50.027344 80.265625 C 54.710938 77.085938 57.910156 71.871094 58.332031 65.902344 C 58.238281 65.914062 58.140625 65.925781 58.042969 65.941406 C 57.609375 71.773438 54.488281 76.867188 49.917969 79.992188 "/><path style=" stroke:none;fill-rule:nonzero;fill:rgb(99.21875%,99.21875%,99.21875%);fill-opacity:1;" d="M 50.269531 80.789062 C 50.3125 80.875 50.355469 80.957031 50.402344 81.042969 C 55.390625 77.703125 58.789062 72.167969 59.195312 65.835938 C 59.101562 65.839844 59.003906 65.84375 58.910156 65.847656 C 58.496094 72.066406 55.164062 77.5 50.269531 80.789062 "/><path style=" stroke:none;fill-rule:nonzero;fill:rgb(99.21875%,99.21875%,99.21875%);fill-opacity:1;" d="M 49.398438 78.257812 C 49.417969 78.359375 49.441406 78.460938 49.464844 78.5625 C 53.386719 75.738281 56.078125 71.320312 56.582031 66.265625 C 56.480469 66.292969 56.382812 66.324219 56.285156 66.359375 C 55.761719 71.234375 53.167969 75.5 49.398438 78.257812 "/><path style=" stroke:none;fill-rule:nonzero;fill:rgb(99.21875%,99.21875%,99.21875%);fill-opacity:1;" d="M 49.625 79.148438 C 49.652344 79.246094 49.683594 79.339844 49.714844 79.4375 C 54.042969 76.425781 57.007812 71.585938 57.460938 66.042969 C 57.363281 66.0625 57.265625 66.085938 57.167969 66.109375 C 56.699219 71.496094 53.824219 76.199219 49.625 79.148438 "/><path style=" stroke:none;fill-rule:nonzero;fill:rgb(99.21875%,99.21875%,99.21875%);fill-opacity:1;" d="M 49.246094 77.296875 C 49.261719 77.40625 49.273438 77.515625 49.289062 77.625 C 52.734375 75.011719 55.121094 71.074219 55.679688 66.578125 C 55.578125 66.621094 55.476562 66.664062 55.375 66.707031 C 54.796875 71 52.519531 74.761719 49.246094 77.296875 "/><path style=" stroke:none;fill-rule:nonzero;fill:rgb(99.21875%,99.21875%,99.21875%);fill-opacity:1;" d="M 39.371094 50.703125 C 38.242188 50.703125 37.144531 50.835938 36.09375 51.09375 C 36.277344 51.152344 36.464844 51.210938 36.652344 51.261719 C 37.53125 51.082031 38.4375 50.988281 39.371094 50.988281 C 40.300781 50.988281 41.210938 51.082031 42.089844 51.261719 C 42.277344 51.210938 42.460938 51.152344 42.644531 51.09375 C 41.59375 50.835938 40.5 50.703125 39.371094 50.703125 "/><path style=" stroke:none;fill-rule:nonzero;fill:rgb(99.21875%,99.21875%,99.21875%);fill-opacity:1;" d="M 39.371094 51.558594 C 39.085938 51.558594 38.804688 51.566406 38.523438 51.585938 C 38.800781 51.609375 39.085938 51.621094 39.371094 51.621094 C 39.65625 51.621094 39.9375 51.609375 40.21875 51.585938 C 39.9375 51.566406 39.65625 51.558594 39.371094 51.558594 "/><path style=" stroke:none;fill-rule:nonzero;fill:rgb(99.21875%,99.21875%,99.21875%);fill-opacity:1;" d="M 29.339844 74.09375 C 29.300781 73.902344 29.257812 73.714844 29.207031 73.523438 C 28.007812 72.171875 27.074219 70.582031 26.488281 68.832031 C 26.351562 68.695312 26.207031 68.5625 26.0625 68.433594 C 26.695312 70.582031 27.832031 72.515625 29.339844 74.09375 "/><path style=" stroke:none;fill-rule:nonzero;fill:rgb(99.21875%,99.21875%,99.21875%);fill-opacity:1;" d="M 24.304688 67.179688 C 24.199219 67.117188 24.09375 67.0625 23.984375 67.003906 C 24.601562 70.859375 26.640625 74.246094 29.542969 76.609375 C 29.546875 76.488281 29.550781 76.363281 29.550781 76.242188 C 26.847656 73.976562 24.9375 70.792969 24.304688 67.179688 "/><path style=" stroke:none;fill-rule:nonzero;fill:rgb(99.21875%,99.21875%,99.21875%);fill-opacity:1;" d="M 54.753906 67.003906 C 54.644531 67.0625 54.539062 67.117188 54.433594 67.179688 C 53.800781 70.792969 51.890625 73.976562 49.1875 76.242188 C 49.1875 76.367188 49.191406 76.488281 49.195312 76.609375 C 52.101562 74.246094 54.136719 70.859375 54.753906 67.003906 "/><path style=" stroke:none;fill-rule:nonzero;fill:rgb(99.21875%,99.21875%,99.21875%);fill-opacity:1;" d="M 49.402344 74.089844 C 50.90625 72.511719 52.042969 70.582031 52.671875 68.4375 C 52.527344 68.5625 52.386719 68.695312 52.25 68.832031 C 51.664062 70.582031 50.730469 72.167969 49.535156 73.519531 C 49.484375 73.707031 49.441406 73.898438 49.402344 74.089844 "/><path style=" stroke:none;fill-rule:nonzero;fill:rgb(99.21875%,99.21875%,99.21875%);fill-opacity:1;" d="M 34.804688 50.566406 C 34.933594 50.628906 35.0625 50.6875 35.191406 50.746094 C 36.515625 50.34375 37.917969 50.128906 39.371094 50.128906 C 40.820312 50.128906 42.226562 50.34375 43.546875 50.746094 C 43.679688 50.6875 43.808594 50.628906 43.933594 50.566406 C 42.496094 50.097656 40.960938 49.84375 39.371094 49.84375 C 37.777344 49.84375 36.242188 50.097656 34.804688 50.566406 "/><path style=" stroke:none;fill-rule:nonzero;fill:rgb(99.21875%,99.21875%,99.21875%);fill-opacity:1;" d="M 51.023438 70.300781 C 50.867188 70.53125 50.714844 70.761719 50.574219 71.007812 C 50.441406 71.242188 50.316406 71.476562 50.203125 71.71875 C 50.503906 71.265625 50.777344 70.792969 51.023438 70.300781 "/><path style=" stroke:none;fill-rule:nonzero;fill:rgb(99.21875%,99.21875%,99.21875%);fill-opacity:1;" d="M 53.773438 67.585938 C 53.65625 67.664062 53.542969 67.746094 53.425781 67.828125 C 52.769531 70.636719 51.285156 73.132812 49.25 75.046875 C 49.234375 75.1875 49.21875 75.328125 49.210938 75.46875 C 51.484375 73.425781 53.121094 70.683594 53.773438 67.585938 "/><path style=" stroke:none;fill-rule:nonzero;fill:rgb(99.21875%,99.21875%,99.21875%);fill-opacity:1;" d="M 27.710938 70.292969 C 27.957031 70.789062 28.234375 71.269531 28.542969 71.726562 C 28.425781 71.484375 28.300781 71.242188 28.164062 71.007812 C 28.023438 70.761719 27.871094 70.523438 27.710938 70.292969 "/><path style=" stroke:none;fill-rule:nonzero;fill:rgb(99.21875%,99.21875%,99.21875%);fill-opacity:1;" d="M 39.371094 48.984375 C 37.414062 48.984375 35.542969 49.347656 33.8125 50.007812 C 33.917969 50.074219 34.019531 50.136719 34.125 50.199219 C 35.761719 49.597656 37.527344 49.273438 39.371094 49.273438 C 41.210938 49.273438 42.980469 49.597656 44.617188 50.199219 C 44.71875 50.136719 44.824219 50.074219 44.925781 50.007812 C 43.199219 49.347656 41.324219 48.984375 39.371094 48.984375 "/><path style=" stroke:none;fill-rule:nonzero;fill:rgb(99.21875%,99.21875%,99.21875%);fill-opacity:1;" d="M 25.3125 67.828125 C 25.199219 67.746094 25.082031 67.664062 24.964844 67.585938 C 25.621094 70.683594 27.253906 73.425781 29.53125 75.46875 C 29.519531 75.328125 29.507812 75.1875 29.488281 75.046875 C 27.453125 73.132812 25.972656 70.636719 25.3125 67.828125 "/></g></svg>