<?xml version="1.0" encoding="UTF-8"?><svg xmlns="http://www.w3.org/2000/svg" xmlns:xlink="http://www.w3.org/1999/xlink" width="104.88" zoomAndPan="magnify" viewBox="0 0 104.88 104.999996" height="104.999996" preserveAspectRatio="xMidYMid meet" version="1.0"><defs><clipPath id="clip-0"><path d="M 85 79 L 104.761719 79 L 104.761719 98 L 85 98 Z M 85 79 " clip-rule="nonzero"/></clipPath><clipPath id="clip-1"><path d="M 1.683594 4.839844 L 98 4.839844 L 98 99.984375 L 1.683594 99.984375 Z M 1.683594 4.839844 " clip-rule="nonzero"/></clipPath></defs><g clip-path="url(#clip-0)"><path fill="rgb(14.509583%, 14.509583%, 14.509583%)" d="M 88.507812 79.882812 C 88.507812 79.882812 91.757812 87.546875 97.277344 87.316406 C 102.800781 87.066406 104.945312 85.09375 104.945312 85.09375 L 103.257812 97.84375 C 103.257812 97.84375 86.816406 98.300781 85.691406 83.476562 C 85.484375 80.652344 88.507812 79.882812 88.507812 79.882812 Z M 88.507812 79.882812 " fill-opacity="1" fill-rule="nonzero"/></g><path fill="rgb(14.509583%, 14.509583%, 14.509583%)" d="M 82.339844 52.414062 C 82.339844 53.484375 82.285156 54.550781 82.179688 55.617188 C 82.074219 56.679688 81.917969 57.738281 81.707031 58.789062 C 81.5 59.839844 81.238281 60.875 80.925781 61.898438 C 80.613281 62.925781 80.253906 63.929688 79.839844 64.917969 C 79.429688 65.910156 78.972656 66.875 78.464844 67.820312 C 77.957031 68.761719 77.40625 69.679688 76.808594 70.570312 C 76.214844 71.460938 75.574219 72.320312 74.894531 73.144531 C 74.210938 73.972656 73.492188 74.765625 72.730469 75.523438 C 71.972656 76.277344 71.175781 76.996094 70.347656 77.675781 C 69.515625 78.355469 68.65625 78.992188 67.761719 79.585938 C 66.867188 80.179688 65.949219 80.730469 65 81.234375 C 64.054688 81.742188 63.082031 82.199219 62.089844 82.605469 C 61.097656 83.015625 60.089844 83.375 59.058594 83.6875 C 58.03125 84 56.992188 84.257812 55.9375 84.46875 C 54.882812 84.675781 53.824219 84.832031 52.753906 84.9375 C 51.683594 85.042969 50.613281 85.09375 49.539062 85.09375 C 48.464844 85.09375 47.394531 85.042969 46.324219 84.9375 C 45.253906 84.832031 44.195312 84.675781 43.140625 84.46875 C 42.085938 84.257812 41.046875 84 40.019531 83.6875 C 38.992188 83.375 37.980469 83.015625 36.988281 82.605469 C 35.996094 82.199219 35.027344 81.742188 34.078125 81.234375 C 33.132812 80.730469 32.210938 80.179688 31.316406 79.585938 C 30.425781 78.992188 29.5625 78.355469 28.734375 77.675781 C 27.902344 76.996094 27.105469 76.277344 26.347656 75.523438 C 25.589844 74.765625 24.867188 73.972656 24.1875 73.144531 C 23.503906 72.320312 22.867188 71.460938 22.269531 70.570312 C 21.671875 69.679688 21.121094 68.761719 20.613281 67.820312 C 20.109375 66.875 19.648438 65.910156 19.238281 64.917969 C 18.828125 63.929688 18.464844 62.925781 18.152344 61.898438 C 17.839844 60.875 17.582031 59.839844 17.371094 58.789062 C 17.160156 57.738281 17.003906 56.679688 16.898438 55.617188 C 16.792969 54.550781 16.742188 53.484375 16.742188 52.414062 C 16.742188 51.34375 16.792969 50.273438 16.898438 49.207031 C 17.003906 48.144531 17.160156 47.085938 17.371094 46.035156 C 17.582031 44.988281 17.839844 43.949219 18.152344 42.925781 C 18.464844 41.902344 18.828125 40.894531 19.238281 39.90625 C 19.648438 38.917969 20.109375 37.949219 20.613281 37.003906 C 21.121094 36.0625 21.671875 35.144531 22.269531 34.253906 C 22.867188 33.363281 23.503906 32.507812 24.1875 31.679688 C 24.867188 30.851562 25.589844 30.058594 26.347656 29.300781 C 27.105469 28.546875 27.902344 27.828125 28.734375 27.148438 C 29.5625 26.46875 30.425781 25.832031 31.316406 25.238281 C 32.210938 24.644531 33.132812 24.09375 34.078125 23.589844 C 35.027344 23.085938 35.996094 22.628906 36.988281 22.21875 C 37.980469 21.808594 38.992188 21.449219 40.019531 21.136719 C 41.046875 20.824219 42.085938 20.566406 43.140625 20.359375 C 44.195312 20.148438 45.253906 19.992188 46.324219 19.886719 C 47.394531 19.78125 48.464844 19.730469 49.539062 19.730469 C 50.613281 19.730469 51.683594 19.78125 52.753906 19.886719 C 53.824219 19.992188 54.882812 20.148438 55.9375 20.359375 C 56.992188 20.566406 58.03125 20.824219 59.058594 21.136719 C 60.089844 21.449219 61.097656 21.808594 62.089844 22.21875 C 63.082031 22.628906 64.054688 23.085938 65 23.589844 C 65.949219 24.09375 66.867188 24.644531 67.761719 25.238281 C 68.65625 25.832031 69.515625 26.46875 70.347656 27.148438 C 71.175781 27.828125 71.972656 28.546875 72.730469 29.300781 C 73.492188 30.058594 74.210938 30.851562 74.894531 31.679688 C 75.574219 32.507812 76.214844 33.363281 76.808594 34.253906 C 77.40625 35.144531 77.957031 36.0625 78.464844 37.003906 C 78.972656 37.949219 79.429688 38.917969 79.839844 39.90625 C 80.253906 40.894531 80.613281 41.902344 80.925781 42.925781 C 81.238281 43.949219 81.5 44.988281 81.707031 46.035156 C 81.917969 47.085938 82.074219 48.144531 82.179688 49.207031 C 82.285156 50.273438 82.339844 51.34375 82.339844 52.414062 Z M 82.339844 52.414062 " fill-opacity="1" fill-rule="nonzero"/><g clip-path="url(#clip-1)"><path fill="rgb(79.998779%, 79.998779%, 80.778503%)" d="M 49.539062 4.839844 C 23.179688 4.839844 1.800781 26.144531 1.800781 52.414062 C 1.800781 78.679688 23.179688 99.984375 49.539062 99.984375 C 75.898438 99.984375 97.277344 78.679688 97.277344 52.414062 C 97.277344 26.144531 75.898438 4.839844 49.539062 4.839844 Z M 49.539062 13.292969 C 56.769531 13.292969 62.605469 19.128906 62.605469 26.3125 C 62.605469 33.496094 56.75 39.332031 49.539062 39.332031 C 42.328125 39.332031 36.472656 33.496094 36.472656 26.3125 C 36.472656 19.128906 42.308594 13.292969 49.539062 13.292969 Z M 58.0625 50.894531 C 58.0625 51.789062 57.355469 52.496094 56.457031 52.496094 C 55.5625 52.496094 54.851562 51.789062 54.851562 50.894531 C 54.851562 50.003906 55.5625 49.296875 56.457031 49.296875 C 57.355469 49.296875 58.0625 50.003906 58.0625 50.894531 Z M 51.144531 43.980469 C 51.144531 44.875 50.4375 45.582031 49.539062 45.582031 C 48.644531 45.582031 47.933594 44.875 47.933594 43.980469 C 47.933594 43.089844 48.644531 42.382812 49.539062 42.382812 C 50.414062 42.382812 51.144531 43.109375 51.144531 43.980469 Z M 44.207031 50.894531 C 44.207031 51.789062 43.496094 52.496094 42.601562 52.496094 C 41.703125 52.496094 40.996094 51.789062 40.996094 50.894531 C 40.996094 50.003906 41.703125 49.296875 42.601562 49.296875 C 43.496094 49.296875 44.207031 50.003906 44.207031 50.894531 Z M 11.65625 45.082031 C 11.65625 37.898438 17.511719 32.0625 24.722656 32.0625 C 31.933594 32.0625 37.789062 37.898438 37.789062 45.082031 C 37.789062 52.265625 31.933594 58.101562 24.722656 58.101562 C 17.511719 58.101562 11.65625 52.289062 11.65625 45.082031 Z M 33.828125 86.363281 C 26.617188 86.363281 20.761719 80.527344 20.761719 73.34375 C 20.761719 66.15625 26.617188 60.324219 33.828125 60.324219 C 41.058594 60.324219 46.894531 66.15625 46.894531 73.34375 C 46.894531 80.527344 41.039062 86.363281 33.828125 86.363281 Z M 45.894531 50.894531 C 45.894531 48.882812 47.519531 47.261719 49.539062 47.261719 C 51.5625 47.261719 53.1875 48.882812 53.1875 50.894531 C 53.1875 52.910156 51.5625 54.53125 49.539062 54.53125 C 47.519531 54.53125 45.894531 52.890625 45.894531 50.894531 Z M 49.539062 59.390625 C 48.644531 59.390625 47.933594 58.683594 47.933594 57.789062 C 47.933594 56.898438 48.644531 56.191406 49.539062 56.191406 C 50.4375 56.191406 51.144531 56.898438 51.144531 57.789062 C 51.144531 58.683594 50.414062 59.390625 49.539062 59.390625 Z M 65 86.363281 C 57.792969 86.363281 51.9375 80.527344 51.9375 73.34375 C 51.9375 66.15625 57.792969 60.324219 65 60.324219 C 72.230469 60.324219 78.066406 66.15625 78.066406 73.34375 C 78.085938 80.527344 72.230469 86.363281 65 86.363281 Z M 74.335938 58.121094 C 67.125 58.121094 61.269531 52.289062 61.269531 45.101562 C 61.269531 37.917969 67.125 32.0625 74.335938 32.0625 C 81.566406 32.0625 87.402344 37.898438 87.402344 45.082031 C 87.402344 52.265625 81.566406 58.121094 74.335938 58.121094 Z M 74.335938 58.121094 " fill-opacity="1" fill-rule="nonzero"/></g><path fill="rgb(74.508667%, 75.289917%, 76.858521%)" d="M 49.851562 96.203125 C 25.617188 96.203125 5.886719 76.5625 5.886719 52.390625 C 5.886719 28.242188 25.597656 8.578125 49.851562 8.578125 C 74.085938 8.578125 93.820312 28.222656 93.820312 52.390625 C 93.796875 76.5625 74.085938 96.203125 49.851562 96.203125 Z M 49.851562 10.675781 C 26.765625 10.675781 7.96875 29.40625 7.96875 52.414062 C 7.96875 75.417969 26.765625 94.148438 49.851562 94.148438 C 72.941406 94.148438 91.734375 75.417969 91.734375 52.414062 C 91.714844 29.40625 72.941406 10.675781 49.851562 10.675781 Z M 49.851562 10.675781 " fill-opacity="1" fill-rule="nonzero"/></svg>