<?xml version="1.0" encoding="UTF-8"?><svg xmlns="http://www.w3.org/2000/svg" xmlns:xlink="http://www.w3.org/1999/xlink" contentScriptType="text/ecmascript" width="37.5" zoomAndPan="magnify" contentStyleType="text/css" viewBox="0 0 37.5 37.499999" height="37.499999" preserveAspectRatio="xMidYMid meet" version="1.0"><defs><clipPath id="clip-0"><path d="M 1.875 1.875 L 35.625 1.875 L 35.625 35.625 L 1.875 35.625 Z M 1.875 1.875 " clip-rule="nonzero"/></clipPath></defs><g clip-path="url(#clip-0)"><path fill="rgb(90.19928%, 90.19928%, 90.19928%)" d="M 25.445312 20.355469 L 16.652344 26.339844 C 16.390625 26.515625 16.089844 26.601562 15.789062 26.597656 C 15.554688 26.59375 15.324219 26.53125 15.109375 26.417969 C 14.621094 26.152344 14.320312 25.640625 14.332031 25.082031 L 14.566406 12.78125 C 14.578125 12.226562 14.898438 11.726562 15.394531 11.480469 C 15.894531 11.234375 16.488281 11.289062 16.933594 11.617188 L 25.492188 17.933594 C 25.878906 18.21875 26.105469 18.675781 26.09375 19.15625 C 26.085938 19.636719 25.84375 20.085938 25.445312 20.355469 Z M 18.75 1.875 C 9.429688 1.875 1.875 9.429688 1.875 18.75 C 1.875 28.070312 9.429688 35.625 18.75 35.625 C 28.070312 35.625 35.625 28.070312 35.625 18.75 C 35.625 9.429688 28.070312 1.875 18.75 1.875 " fill-opacity="1" fill-rule="nonzero"/></g></svg>