<?xml version="1.0" encoding="UTF-8"?><svg xmlns="http://www.w3.org/2000/svg" xmlns:xlink="http://www.w3.org/1999/xlink" contentScriptType="text/ecmascript" width="224.87999" zoomAndPan="magnify" contentStyleType="text/css" viewBox="0 0 224.87999 299.999988" height="299.999988" preserveAspectRatio="xMidYMid meet" version="1.0"><defs><clipPath id="clip-0"><path d="M 15.316406 64 L 67 64 L 67 271 L 15.316406 271 Z M 15.316406 64 " clip-rule="nonzero"/></clipPath></defs><path fill="rgb(97.648621%, 65.879822%, 14.509583%)" d="M 130.785156 56.984375 C 131.019531 57.359375 131.300781 57.742188 131.582031 58.140625 C 131.867188 58.539062 132.15625 58.953125 132.402344 59.386719 C 133.898438 63.496094 129.894531 69.015625 126.214844 69.523438 C 124.714844 69.644531 123.378906 70.050781 122.148438 70.632812 C 121.726562 70.828125 121.328125 71.042969 120.9375 71.269531 C 120.203125 71.695312 119.375 71.859375 118.539062 71.859375 C 114.691406 72.027344 111.355469 72.027344 107.675781 72.195312 C 106.519531 72.195312 106.011719 69.183594 104.691406 67.679688 C 104.394531 67.289062 104.074219 66.921875 103.734375 66.566406 C 102.71875 65.5 101.496094 64.582031 99.996094 63.832031 C 98.828125 63.328125 98.160156 62.15625 97.898438 60.746094 C 97.902344 60.359375 97.992188 59.984375 98.160156 59.652344 C 98.789062 58.601562 99.347656 57.582031 99.816406 56.554688 C 100.046875 56.046875 100.253906 55.539062 100.425781 55.019531 C 102.167969 51.289062 99.160156 43.921875 105.410156 44.648438 C 105.828125 44.582031 106.265625 44.46875 106.675781 44.257812 C 109.847656 42.421875 111.523438 37.734375 115.601562 37.683594 C 116.195312 37.570312 116.863281 37.734375 117.367188 38.070312 C 120.203125 39.242188 120.707031 43.589844 124.21875 43.921875 C 126.019531 43.921875 128.410156 43.8125 129.964844 45.058594 C 130.265625 45.304688 130.546875 45.613281 130.769531 45.988281 C 131.398438 46.933594 131.730469 47.941406 131.566406 49.109375 C 131.230469 51.289062 129.726562 53.292969 130.210938 55.472656 C 130.304688 55.988281 130.507812 56.492188 130.785156 56.984375 " fill-opacity="1" fill-rule="nonzero"/><path fill="rgb(97.648621%, 65.879822%, 14.509583%)" d="M 108.769531 61.734375 C 108.769531 61.734375 114.867188 57.640625 120.960938 62.320312 C 120.960938 62.320312 121.214844 58.722656 124.050781 58.054688 C 126.886719 57.386719 122.382812 58.722656 120.878906 55.332031 C 119.375 51.949219 117.199219 49.527344 118.289062 48.855469 C 119.375 48.183594 116.035156 48.519531 112.777344 50.441406 C 109.515625 52.367188 107.183594 52.117188 107.015625 50.277344 C 106.847656 48.433594 105.847656 55.898438 108.769531 55.433594 C 111.6875 54.960938 113.945312 55.710938 113.109375 56.96875 C 112.277344 58.222656 107.933594 59.980469 108.769531 61.734375 " fill-opacity="1" fill-rule="nonzero"/><g clip-path="url(#clip-0)"><path fill="rgb(82.348633%, 19.999695%, 19.999695%)" d="M 66.84375 270.65625 C 61.28125 270.65625 55.722656 270.65625 50.160156 270.65625 C 38.53125 201.832031 26.902344 133.011719 15.28125 64.191406 C 24.160156 64.191406 33.042969 64.191406 41.925781 64.191406 C 50.234375 133.011719 58.542969 201.832031 66.84375 270.65625 " fill-opacity="1" fill-rule="nonzero"/></g><path fill="rgb(19.60907%, 19.219971%, 27.059937%)" d="M 83.535156 270.65625 C 77.972656 270.65625 72.414062 270.65625 66.84375 270.65625 C 58.542969 201.832031 50.234375 133.011719 41.925781 64.191406 C 50.808594 64.191406 59.703125 64.191406 68.582031 64.191406 C 73.566406 133.011719 78.550781 201.832031 83.535156 270.65625 " fill-opacity="1" fill-rule="nonzero"/><path fill="rgb(82.348633%, 19.999695%, 19.999695%)" d="M 100.222656 270.65625 C 94.660156 270.65625 89.097656 270.65625 83.535156 270.65625 C 78.550781 201.832031 73.566406 133.011719 68.582031 64.191406 C 77.464844 64.191406 86.355469 64.191406 95.242188 64.191406 C 96.902344 133.011719 98.5625 201.832031 100.222656 270.65625 " fill-opacity="1" fill-rule="nonzero"/><path fill="rgb(19.60907%, 19.219971%, 27.059937%)" d="M 116.914062 270.65625 C 111.347656 270.65625 105.785156 270.65625 100.222656 270.65625 C 98.5625 201.832031 96.902344 133.011719 95.242188 64.191406 C 104.125 64.191406 113.007812 64.191406 121.894531 64.191406 C 120.234375 133.011719 118.566406 201.832031 116.914062 270.65625 " fill-opacity="1" fill-rule="nonzero"/><path fill="rgb(82.348633%, 19.999695%, 19.999695%)" d="M 133.597656 270.65625 C 128.03125 270.65625 122.472656 270.65625 116.914062 270.65625 C 118.566406 201.832031 120.234375 133.011719 121.894531 64.191406 C 130.773438 64.191406 139.667969 64.191406 148.550781 64.191406 C 143.5625 133.011719 138.582031 201.832031 133.597656 270.65625 " fill-opacity="1" fill-rule="nonzero"/><path fill="rgb(82.348633%, 19.999695%, 19.999695%)" d="M 166.964844 270.65625 C 161.40625 270.65625 155.847656 270.65625 150.285156 270.65625 C 158.585938 201.832031 166.894531 133.011719 175.203125 64.191406 C 184.09375 64.191406 192.980469 64.191406 201.863281 64.191406 C 190.234375 133.011719 178.605469 201.832031 166.964844 270.65625 " fill-opacity="1" fill-rule="nonzero"/><path fill="rgb(19.60907%, 19.219971%, 27.059937%)" d="M 150.285156 270.65625 C 144.71875 270.65625 139.160156 270.65625 133.597656 270.65625 C 138.582031 201.832031 143.5625 133.011719 148.550781 64.191406 C 157.4375 64.191406 166.324219 64.191406 175.203125 64.191406 C 166.894531 133.011719 158.585938 201.832031 150.285156 270.65625 " fill-opacity="1" fill-rule="nonzero"/><path fill="rgb(97.648621%, 65.879822%, 14.509583%)" d="M 51.796875 42.519531 C 52.03125 42.890625 52.316406 43.273438 52.597656 43.675781 C 52.886719 44.074219 53.164062 44.488281 53.417969 44.917969 C 54.914062 49.027344 50.90625 54.546875 47.230469 55.046875 C 45.722656 55.175781 44.390625 55.582031 43.152344 56.167969 C 42.734375 56.363281 42.339844 56.574219 41.945312 56.800781 C 41.214844 57.226562 40.386719 57.390625 39.550781 57.390625 C 35.703125 57.558594 32.367188 57.558594 28.691406 57.726562 C 27.519531 57.726562 27.027344 54.714844 25.703125 53.210938 C 25.410156 52.824219 25.089844 52.453125 24.753906 52.097656 C 23.730469 51.03125 22.507812 50.113281 21.007812 49.363281 C 19.839844 48.859375 19.171875 47.691406 18.910156 46.28125 C 18.921875 45.890625 19.007812 45.515625 19.171875 45.179688 C 19.800781 44.132812 20.363281 43.113281 20.824219 42.089844 C 21.054688 41.578125 21.261719 41.074219 21.441406 40.558594 C 23.179688 36.816406 20.171875 29.457031 26.421875 30.179688 C 26.839844 30.113281 27.269531 30 27.683594 29.789062 C 30.863281 27.953125 32.539062 23.269531 36.621094 23.214844 C 37.210938 23.101562 37.875 23.269531 38.378906 23.601562 C 41.214844 24.769531 41.71875 29.121094 45.21875 29.457031 C 47.035156 29.457031 49.425781 29.34375 50.972656 30.589844 C 51.28125 30.84375 51.554688 31.148438 51.785156 31.519531 C 52.410156 32.46875 52.742188 33.472656 52.574219 34.640625 C 52.242188 36.816406 50.738281 38.824219 51.222656 41.003906 C 51.320312 41.519531 51.515625 42.023438 51.796875 42.519531 " fill-opacity="1" fill-rule="nonzero"/><path fill="rgb(97.648621%, 65.879822%, 14.509583%)" d="M 29.78125 47.269531 C 29.78125 47.269531 35.875 43.167969 41.972656 47.851562 C 41.972656 47.851562 42.226562 44.257812 45.0625 43.589844 C 47.902344 42.917969 43.398438 44.25 41.890625 40.867188 C 40.386719 37.484375 38.214844 35.058594 39.300781 34.386719 C 40.386719 33.71875 37.050781 34.054688 33.789062 35.976562 C 30.53125 37.902344 28.195312 37.652344 28.027344 35.808594 C 27.863281 33.96875 26.855469 41.433594 29.78125 40.964844 C 32.699219 40.492188 34.957031 41.246094 34.121094 42.5 C 33.289062 43.757812 28.945312 45.515625 29.78125 47.269531 " fill-opacity="1" fill-rule="nonzero"/><path fill="rgb(97.648621%, 65.879822%, 14.509583%)" d="M 46.726562 61.265625 C 47.070312 61.554688 47.378906 61.875 47.625 62.222656 C 47.882812 62.570312 48.097656 62.9375 48.257812 63.3125 C 48.574219 64.066406 48.65625 64.859375 48.320312 65.613281 C 47.488281 67.453125 44.980469 67.285156 43.472656 68.4375 C 43.027344 68.675781 42.601562 68.941406 42.183594 69.234375 C 40.515625 70.378906 39.050781 71.886719 37.636719 73.644531 C 37.128906 74.144531 36.296875 74.476562 35.589844 74.792969 C 35.089844 75 34.582031 75.179688 34.046875 75.328125 C 33.003906 75.625 31.890625 75.792969 30.703125 75.789062 C 30.199219 75.789062 29.695312 75.761719 29.199219 75.746094 C 25.648438 76.363281 24.945312 73.679688 23.453125 71.410156 C 23.152344 70.960938 22.820312 70.519531 22.441406 70.117188 C 20.761719 68.621094 17.421875 67.953125 17.59375 66.117188 C 17.925781 63.4375 21.761719 61.933594 23.117188 59.003906 C 23.359375 58.523438 23.589844 58.023438 23.804688 57.515625 C 24.648438 55.496094 25.273438 53.320312 26.109375 51.230469 C 26.78125 49.722656 27.949219 48.550781 29.511719 47.714844 C 29.898438 47.503906 30.308594 47.332031 30.738281 47.191406 C 36.296875 45.371094 40.136719 50.554688 41.449219 55.242188 C 41.671875 55.761719 41.910156 56.265625 42.179688 56.753906 C 43.003906 58.210938 44.132812 59.476562 45.824219 60.414062 C 46.09375 60.695312 46.394531 60.976562 46.726562 61.265625 " fill-opacity="1" fill-rule="nonzero"/><path fill="rgb(97.648621%, 65.879822%, 14.509583%)" d="M 18.769531 67.449219 C 18.769531 67.449219 20.351562 70.042969 26.277344 67.449219 C 32.207031 64.859375 30.167969 67.765625 31.980469 68.027344 C 33.792969 68.289062 35.382812 66.277344 39.554688 65.527344 C 43.730469 64.773438 42.898438 66.527344 42.898438 66.527344 C 42.898438 66.527344 34.296875 66.828125 35.46875 68.601562 C 36.628906 70.378906 32.710938 70.125 32.875 70.542969 C 33.042969 70.964844 29.765625 70.582031 29.316406 72.65625 C 28.867188 74.726562 26.195312 72.082031 26.195312 70.894531 C 26.195312 69.710938 29.453125 68.703125 27.949219 68.453125 C 26.449219 68.199219 21.097656 71.546875 18.769531 67.449219 " fill-opacity="1" fill-rule="nonzero"/><path fill="rgb(97.648621%, 65.879822%, 14.509583%)" d="M 65.035156 56.792969 C 65.496094 56.835938 65.878906 56.941406 66.195312 57.097656 C 66.503906 57.253906 66.753906 57.457031 66.941406 57.707031 C 67.3125 58.195312 67.4375 58.839844 67.386719 59.542969 C 67.363281 59.890625 67.289062 60.257812 67.183594 60.625 C 67.125 66.585938 63.289062 72.273438 56.585938 70.617188 C 56.171875 70.527344 55.765625 70.429688 55.351562 70.3125 C 54.9375 70.199219 54.519531 70.070312 54.101562 69.929688 C 53.722656 69.773438 53.375 69.742188 53.039062 69.800781 C 50.59375 70.9375 47.246094 72.777344 45.25 69.929688 C 44.082031 68.257812 44.75 66.25 44.082031 64.40625 C 43.910156 63.914062 43.578125 63.578125 43.242188 63.242188 C 42.800781 62.878906 42.414062 62.472656 42.085938 62.027344 C 40.46875 59.808594 40.371094 56.734375 41.894531 54.3125 C 42.167969 53.855469 42.492188 53.414062 42.847656 53.011719 C 43.203125 52.605469 43.601562 52.230469 44.066406 51.910156 C 45.101562 51.5 45.929688 50.902344 46.625 50.1875 C 46.976562 49.828125 47.289062 49.441406 47.578125 49.03125 C 49.59375 46.679688 50.097656 41.660156 53.265625 41.996094 C 55.269531 42.328125 57.109375 44.171875 58.949219 45.433594 C 59.339844 45.613281 59.742188 45.761719 60.136719 45.875 C 62.453125 47.015625 65.125 44.839844 67.125 46.34375 C 68.964844 47.515625 69.800781 50.359375 68.101562 52.285156 C 67.738281 52.753906 67.335938 53.195312 66.917969 53.589844 C 66.503906 53.984375 66.074219 54.339844 65.65625 54.628906 C 65.222656 54.9375 64.765625 55.238281 64.292969 55.546875 C 64.292969 55.710938 64.292969 56.046875 64.265625 56.148438 C 64.378906 56.347656 64.628906 56.558594 65.035156 56.792969 " fill-opacity="1" fill-rule="nonzero"/><path fill="rgb(97.648621%, 65.879822%, 14.509583%)" d="M 47.5625 57.128906 C 46.929688 57.355469 51.015625 58.414062 50.683594 62.761719 C 50.683594 62.761719 52.792969 61.316406 55.136719 62.761719 C 55.136719 62.761719 57.503906 58.972656 60.273438 58.414062 C 63.042969 57.855469 62.371094 55.960938 62.371094 53.621094 C 62.371094 51.277344 61.816406 54.398438 58.921875 53.621094 C 56.027344 52.839844 55.003906 55.851562 55.003906 55.851562 C 55.003906 55.851562 50.234375 55.625 52.242188 51.722656 C 54.242188 47.820312 48.65625 52.617188 49.058594 54.398438 C 49.453125 56.183594 49.574219 56.394531 47.5625 57.128906 " fill-opacity="1" fill-rule="nonzero"/><path fill="rgb(97.648621%, 65.879822%, 14.509583%)" d="M 50.648438 39.53125 C 50.304688 39.261719 49.914062 38.992188 49.507812 38.710938 C 49.105469 38.429688 48.707031 38.136719 48.328125 37.808594 C 45.542969 34.4375 47.480469 27.894531 50.78125 26.195312 C 52.160156 25.574219 53.28125 24.738281 54.25 23.777344 C 54.578125 23.457031 54.878906 23.121094 55.175781 22.78125 C 55.722656 22.136719 56.453125 21.695312 57.242188 21.417969 C 60.804688 19.976562 63.960938 18.863281 67.363281 17.472656 C 68.46875 17.085938 69.941406 19.757812 71.683594 20.738281 C 72.09375 21 72.511719 21.246094 72.953125 21.464844 C 74.265625 22.132812 75.722656 22.585938 77.394531 22.792969 C 78.664062 22.875 79.6875 23.753906 80.398438 24.996094 C 80.519531 25.367188 80.570312 25.75 80.519531 26.121094 C 80.277344 27.316406 80.089844 28.46875 79.992188 29.589844 C 79.9375 30.148438 79.917969 30.699219 79.917969 31.242188 C 79.527344 35.34375 84.816406 41.277344 78.679688 42.683594 C 78.308594 42.882812 77.949219 43.136719 77.621094 43.476562 C 75.238281 46.269531 75.226562 51.242188 71.390625 52.660156 C 70.871094 52.964844 70.1875 53.03125 69.601562 52.878906 C 66.539062 52.726562 64.617188 48.792969 61.195312 49.648438 C 59.492188 50.253906 57.273438 51.164062 55.398438 50.503906 C 55.023438 50.367188 54.664062 50.175781 54.328125 49.898438 C 53.417969 49.214844 52.777344 48.375 52.539062 47.21875 C 52.136719 45.054688 52.875 42.664062 51.699219 40.769531 C 51.429688 40.316406 51.082031 39.902344 50.648438 39.53125 " fill-opacity="1" fill-rule="nonzero"/><path fill="rgb(97.648621%, 65.879822%, 14.509583%)" d="M 69.160156 28.640625 C 69.160156 28.640625 64.773438 34.542969 57.472656 32.164062 C 57.472656 32.164062 58.429688 35.640625 55.972656 37.21875 C 53.527344 38.796875 57.328125 36.035156 59.878906 38.722656 C 62.421875 41.414062 65.273438 42.96875 64.46875 43.964844 C 63.675781 44.960938 66.710938 43.527344 69.144531 40.625 C 71.570312 37.722656 73.855469 37.175781 74.632812 38.855469 C 75.398438 40.539062 73.855469 33.164062 71.253906 34.585938 C 68.65625 36.003906 66.28125 36.046875 66.648438 34.589844 C 67.023438 33.125 70.53125 30.019531 69.160156 28.640625 " fill-opacity="1" fill-rule="nonzero"/><path fill="rgb(97.648621%, 65.879822%, 14.509583%)" d="M 60.667969 68.164062 C 60.253906 68.007812 59.855469 67.804688 59.5 67.566406 C 59.148438 67.320312 58.824219 67.050781 58.554688 66.75 C 58 66.144531 57.65625 65.421875 57.71875 64.601562 C 57.898438 62.589844 60.308594 61.910156 61.347656 60.320312 C 61.683594 59.941406 62.003906 59.546875 62.304688 59.140625 C 63.496094 57.492188 64.371094 55.585938 65.121094 53.460938 C 65.425781 52.816406 66.101562 52.21875 66.664062 51.683594 C 67.0625 51.328125 67.484375 50.988281 67.933594 50.671875 C 68.828125 50.042969 69.820312 49.511719 70.941406 49.121094 C 71.410156 48.953125 71.894531 48.8125 72.375 48.660156 C 75.511719 46.890625 77.074219 49.183594 79.230469 50.824219 C 79.664062 51.148438 80.121094 51.457031 80.613281 51.699219 C 82.699219 52.554688 86.0625 52.0625 86.523438 53.859375 C 87.097656 56.488281 83.984375 59.191406 83.679688 62.402344 C 83.613281 62.945312 83.566406 63.488281 83.53125 64.039062 C 83.40625 66.226562 83.539062 68.488281 83.457031 70.738281 C 83.324219 72.378906 82.617188 73.875 81.421875 75.1875 C 81.113281 75.515625 80.789062 75.8125 80.4375 76.082031 C 75.800781 79.660156 70.449219 76.054688 67.652344 72.078125 C 67.273438 71.664062 66.882812 71.265625 66.464844 70.898438 C 65.203125 69.800781 63.714844 68.988281 61.804688 68.667969 C 61.457031 68.492188 61.078125 68.328125 60.667969 68.164062 " fill-opacity="1" fill-rule="nonzero"/><path fill="rgb(97.648621%, 65.879822%, 14.509583%)" d="M 84.304688 53.933594 C 84.304688 53.933594 81.949219 52.019531 77.21875 56.445312 C 72.496094 60.871094 73.445312 57.449219 71.648438 57.808594 C 69.859375 58.167969 69.027344 60.589844 65.34375 62.699219 C 61.660156 64.800781 61.859375 62.871094 61.859375 62.871094 C 61.859375 62.871094 69.871094 59.714844 68.179688 58.429688 C 66.484375 57.148438 70.265625 56.074219 69.964844 55.734375 C 69.675781 55.394531 72.886719 54.65625 72.621094 52.558594 C 72.355469 50.453125 75.753906 52.050781 76.15625 53.167969 C 76.550781 54.285156 73.816406 56.320312 75.3125 56.058594 C 76.808594 55.792969 80.738281 50.851562 84.304688 53.933594 " fill-opacity="1" fill-rule="nonzero"/><path fill="rgb(97.648621%, 65.879822%, 14.509583%)" d="M 162.492188 52.75 C 162.730469 53.125 163.003906 53.507812 163.289062 53.910156 C 163.582031 54.308594 163.867188 54.722656 164.101562 55.15625 C 165.613281 59.261719 161.601562 64.777344 157.921875 65.28125 C 156.417969 65.410156 155.085938 65.816406 153.851562 66.402344 C 153.433594 66.597656 153.035156 66.808594 152.636719 67.035156 C 151.914062 67.457031 151.082031 67.625 150.246094 67.625 C 146.398438 67.792969 143.058594 67.792969 139.386719 67.960938 C 138.214844 67.960938 137.71875 64.949219 136.398438 63.445312 C 136.101562 63.054688 135.785156 62.683594 135.449219 62.332031 C 134.429688 61.265625 133.207031 60.351562 131.699219 59.597656 C 130.53125 59.09375 129.867188 57.921875 129.609375 56.515625 C 129.613281 56.128906 129.695312 55.75 129.867188 55.414062 C 130.492188 54.367188 131.054688 53.347656 131.523438 52.324219 C 131.75 51.8125 131.960938 51.300781 132.136719 50.789062 C 133.878906 47.050781 130.871094 39.691406 137.117188 40.410156 C 137.535156 40.347656 137.96875 40.230469 138.386719 40.03125 C 141.554688 38.183594 143.230469 33.503906 147.316406 33.445312 C 147.910156 33.332031 148.570312 33.503906 149.074219 33.839844 C 151.914062 35.003906 152.414062 39.355469 155.921875 39.691406 C 157.730469 39.691406 160.121094 39.574219 161.671875 40.824219 C 161.980469 41.074219 162.257812 41.378906 162.480469 41.753906 C 163.109375 42.703125 163.4375 43.707031 163.269531 44.875 C 162.941406 47.050781 161.433594 49.054688 161.914062 51.238281 C 162.019531 51.753906 162.207031 52.257812 162.492188 52.75 " fill-opacity="1" fill-rule="nonzero"/><path fill="rgb(97.648621%, 65.879822%, 14.509583%)" d="M 140.476562 57.503906 C 140.476562 57.503906 146.574219 53.40625 152.664062 58.085938 C 152.664062 58.085938 152.917969 54.492188 155.757812 53.820312 C 158.597656 53.152344 154.089844 54.484375 152.582031 51.097656 C 151.082031 47.714844 148.910156 45.292969 150 44.617188 C 151.082031 43.949219 147.742188 44.285156 144.480469 46.210938 C 141.226562 48.132812 138.894531 47.882812 138.722656 46.042969 C 138.550781 44.207031 137.558594 51.664062 140.476562 51.195312 C 143.402344 50.722656 145.648438 51.480469 144.816406 52.734375 C 143.984375 53.988281 139.640625 55.746094 140.476562 57.503906 " fill-opacity="1" fill-rule="nonzero"/><path fill="rgb(97.648621%, 65.879822%, 14.509583%)" d="M 136.070312 20.882812 C 136.410156 21.164062 136.800781 21.445312 137.191406 21.738281 C 137.582031 22.027344 137.984375 22.335938 138.335938 22.671875 C 141.027344 26.128906 138.894531 32.609375 135.546875 34.210938 C 134.152344 34.789062 133 35.585938 131.996094 36.515625 C 131.667969 36.832031 131.351562 37.152344 131.042969 37.488281 C 130.472656 38.117188 129.734375 38.53125 128.9375 38.785156 C 125.332031 40.121094 122.148438 41.136719 118.703125 42.421875 C 117.585938 42.777344 116.191406 40.0625 114.484375 39.03125 C 114.082031 38.753906 113.667969 38.5 113.234375 38.261719 C 111.9375 37.558594 110.492188 37.058594 108.839844 36.800781 C 107.566406 36.679688 106.574219 35.765625 105.902344 34.503906 C 105.796875 34.132812 105.757812 33.746094 105.816406 33.378906 C 106.09375 32.191406 106.3125 31.042969 106.453125 29.925781 C 106.519531 29.371094 106.558594 28.824219 106.574219 28.277344 C 107.085938 24.191406 101.976562 18.097656 108.152344 16.878906 C 108.535156 16.6875 108.90625 16.449219 109.242188 16.117188 C 111.707031 13.398438 111.867188 8.429688 115.75 7.128906 C 116.273438 6.839844 116.957031 6.796875 117.539062 6.960938 C 120.597656 7.207031 122.398438 11.195312 125.84375 10.449219 C 127.566406 9.894531 129.804688 9.054688 131.664062 9.769531 C 132.035156 9.914062 132.390625 10.121094 132.710938 10.40625 C 133.605469 11.117188 134.226562 11.976562 134.421875 13.144531 C 134.757812 15.316406 133.945312 17.683594 135.066406 19.613281 C 135.320312 20.078125 135.65625 20.496094 136.070312 20.882812 " fill-opacity="1" fill-rule="nonzero"/><path fill="rgb(97.648621%, 65.879822%, 14.509583%)" d="M 116.414062 32.019531 C 116.414062 32.019531 120.96875 26.257812 128.199219 28.855469 C 128.199219 28.855469 127.339844 25.355469 129.839844 23.847656 C 132.339844 22.34375 128.457031 24.988281 125.992188 22.226562 C 123.535156 19.460938 120.726562 17.8125 121.550781 16.847656 C 122.386719 15.875 119.304688 17.214844 116.789062 20.042969 C 114.273438 22.871094 111.972656 23.34375 111.246094 21.644531 C 110.527344 19.941406 111.84375 27.355469 114.488281 26.011719 C 117.128906 24.675781 119.503906 24.707031 119.09375 26.152344 C 118.679688 27.601562 115.078125 30.601562 116.414062 32.019531 " fill-opacity="1" fill-rule="nonzero"/><path fill="rgb(97.648621%, 65.879822%, 14.509583%)" d="M 112.421875 50.316406 C 112.585938 50.5625 112.773438 50.816406 112.953125 51.082031 C 113.144531 51.34375 113.335938 51.621094 113.5 51.90625 C 114.488281 54.625 111.839844 58.28125 109.402344 58.613281 C 108.402344 58.695312 107.523438 58.96875 106.703125 59.351562 C 106.429688 59.484375 106.164062 59.625 105.902344 59.773438 C 105.421875 60.054688 104.875 60.164062 104.3125 60.164062 C 101.777344 60.273438 99.558594 60.273438 97.128906 60.386719 C 96.351562 60.386719 96.023438 58.390625 95.152344 57.394531 C 94.949219 57.140625 94.738281 56.894531 94.515625 56.65625 C 93.847656 55.953125 93.035156 55.34375 92.042969 54.847656 C 91.273438 54.515625 90.824219 53.742188 90.652344 52.804688 C 90.660156 52.554688 90.710938 52.300781 90.824219 52.078125 C 91.238281 51.382812 91.613281 50.707031 91.921875 50.035156 C 92.074219 49.695312 92.207031 49.355469 92.332031 49.011719 C 93.476562 46.535156 91.496094 41.667969 95.628906 42.148438 C 95.90625 42.101562 96.1875 42.027344 96.46875 41.890625 C 98.5625 40.671875 99.675781 37.570312 102.375 37.53125 C 102.765625 37.460938 103.210938 37.570312 103.539062 37.792969 C 105.421875 38.5625 105.746094 41.445312 108.078125 41.667969 C 109.273438 41.667969 110.855469 41.589844 111.882812 42.414062 C 112.085938 42.582031 112.269531 42.78125 112.417969 43.03125 C 112.835938 43.660156 113.054688 44.328125 112.949219 45.097656 C 112.71875 46.535156 111.722656 47.867188 112.050781 49.3125 C 112.113281 49.65625 112.238281 49.988281 112.421875 50.316406 " fill-opacity="1" fill-rule="nonzero"/><path fill="rgb(97.648621%, 65.879822%, 14.509583%)" d="M 97.710938 53.601562 C 97.710938 53.601562 101.746094 50.886719 105.785156 53.988281 C 105.785156 53.988281 105.953125 51.605469 107.832031 51.164062 C 109.710938 50.722656 106.722656 51.597656 105.730469 49.363281 C 104.734375 47.125 103.292969 45.515625 104.011719 45.074219 C 104.734375 44.628906 102.523438 44.855469 100.363281 46.125 C 98.207031 47.398438 96.660156 47.234375 96.550781 46.015625 C 96.441406 44.792969 95.773438 49.734375 97.710938 49.429688 C 99.648438 49.113281 101.136719 49.613281 100.578125 50.441406 C 100.027344 51.273438 97.15625 52.4375 97.710938 53.601562 " fill-opacity="1" fill-rule="nonzero"/><path fill="rgb(97.648621%, 65.879822%, 14.509583%)" d="M 143.277344 68.90625 C 143.621094 69.191406 143.921875 69.519531 144.179688 69.863281 C 144.429688 70.207031 144.648438 70.570312 144.800781 70.949219 C 145.125 71.703125 145.207031 72.5 144.871094 73.253906 C 144.035156 75.09375 141.527344 74.925781 140.027344 76.078125 C 139.582031 76.316406 139.148438 76.582031 138.734375 76.871094 C 137.066406 78.019531 135.601562 79.523438 134.179688 81.28125 C 133.679688 81.785156 132.84375 82.117188 132.136719 82.4375 C 131.632812 82.644531 131.132812 82.820312 130.589844 82.96875 C 129.550781 83.265625 128.433594 83.433594 127.25 83.425781 C 126.746094 83.425781 126.253906 83.40625 125.746094 83.378906 C 122.199219 84 121.488281 81.316406 120 79.050781 C 119.699219 78.597656 119.375 78.15625 118.988281 77.761719 C 117.308594 76.261719 113.976562 75.59375 114.140625 73.757812 C 114.472656 71.078125 118.3125 69.574219 119.667969 66.640625 C 119.914062 66.160156 120.140625 65.664062 120.347656 65.152344 C 121.195312 63.132812 121.816406 60.957031 122.65625 58.867188 C 123.328125 57.359375 124.492188 56.1875 126.054688 55.355469 C 126.453125 55.144531 126.859375 54.972656 127.277344 54.832031 C 132.84375 53.011719 136.691406 58.195312 138.003906 62.878906 C 138.214844 63.40625 138.449219 63.910156 138.726562 64.394531 C 139.546875 65.847656 140.675781 67.117188 142.371094 68.050781 C 142.640625 68.332031 142.945312 68.617188 143.277344 68.90625 " fill-opacity="1" fill-rule="nonzero"/><path fill="rgb(97.648621%, 65.879822%, 14.509583%)" d="M 115.3125 75.089844 C 115.3125 75.089844 116.898438 77.683594 122.828125 75.089844 C 128.757812 72.496094 126.71875 75.402344 128.527344 75.667969 C 130.34375 75.921875 131.925781 73.917969 136.101562 73.167969 C 140.292969 72.410156 139.445312 74.164062 139.445312 74.164062 C 139.445312 74.164062 130.847656 74.464844 132.019531 76.242188 C 133.179688 78.019531 129.257812 77.765625 129.425781 78.179688 C 129.59375 78.601562 126.316406 78.226562 125.867188 80.296875 C 125.414062 82.363281 122.75 79.722656 122.75 78.539062 C 122.75 77.347656 126.003906 76.34375 124.503906 76.09375 C 122.996094 75.839844 117.644531 79.183594 115.3125 75.089844 " fill-opacity="1" fill-rule="nonzero"/><path fill="rgb(97.648621%, 65.879822%, 14.509583%)" d="M 166.554688 69.730469 C 167.019531 69.773438 167.40625 69.882812 167.71875 70.03125 C 168.03125 70.195312 168.273438 70.402344 168.464844 70.644531 C 168.835938 71.136719 168.964844 71.777344 168.90625 72.480469 C 168.882812 72.832031 168.816406 73.199219 168.703125 73.566406 C 168.648438 79.523438 164.804688 85.214844 158.109375 83.558594 C 157.691406 83.464844 157.285156 83.367188 156.871094 83.253906 C 156.457031 83.140625 156.042969 83.011719 155.625 82.871094 C 155.246094 82.714844 154.894531 82.679688 154.558594 82.734375 C 152.117188 83.875 148.773438 85.71875 146.773438 82.871094 C 145.597656 81.199219 146.265625 79.191406 145.597656 77.355469 C 145.433594 76.851562 145.105469 76.515625 144.765625 76.179688 C 144.320312 75.820312 143.933594 75.40625 143.609375 74.964844 C 141.992188 72.75 141.886719 69.671875 143.414062 67.25 C 143.695312 66.792969 144.007812 66.355469 144.367188 65.949219 C 144.71875 65.546875 145.125 65.167969 145.585938 64.851562 C 146.617188 64.441406 147.460938 63.839844 148.148438 63.132812 C 148.5 62.769531 148.816406 62.382812 149.097656 61.972656 C 151.113281 59.617188 151.609375 54.597656 154.789062 54.933594 C 156.792969 55.273438 158.632812 57.113281 160.472656 58.375 C 160.863281 58.554688 161.257812 58.699219 161.664062 58.8125 C 163.972656 59.957031 166.648438 57.78125 168.648438 59.28125 C 170.492188 60.453125 171.320312 63.304688 169.625 65.226562 C 169.257812 65.691406 168.855469 66.132812 168.4375 66.527344 C 168.023438 66.925781 167.589844 67.277344 167.179688 67.570312 C 166.742188 67.878906 166.285156 68.175781 165.8125 68.484375 C 165.8125 68.648438 165.8125 68.988281 165.789062 69.089844 C 165.898438 69.289062 166.148438 69.496094 166.554688 69.730469 " fill-opacity="1" fill-rule="nonzero"/><path fill="rgb(97.648621%, 65.879822%, 14.509583%)" d="M 149.089844 70.0625 C 148.449219 70.296875 152.539062 71.355469 152.199219 75.703125 C 152.199219 75.703125 154.320312 74.25 156.65625 75.703125 C 156.65625 75.703125 159.03125 71.910156 161.792969 71.355469 C 164.5625 70.796875 163.894531 68.898438 163.894531 66.558594 C 163.894531 64.210938 163.335938 67.335938 160.441406 66.558594 C 157.546875 65.777344 156.523438 68.789062 156.523438 68.789062 C 156.523438 68.789062 151.757812 68.5625 153.761719 64.664062 C 155.765625 60.757812 150.183594 65.554688 150.578125 67.335938 C 150.976562 69.125 151.085938 69.335938 149.089844 70.0625 " fill-opacity="1" fill-rule="nonzero"/><path fill="rgb(97.648621%, 65.879822%, 14.509583%)" d="M 160.933594 50.179688 C 160.582031 49.910156 160.199219 49.640625 159.792969 49.363281 C 159.390625 49.078125 158.984375 48.78125 158.613281 48.460938 C 155.824219 45.085938 157.761719 38.542969 161.0625 36.839844 C 162.433594 36.21875 163.5625 35.386719 164.535156 34.425781 C 164.859375 34.101562 165.160156 33.765625 165.457031 33.421875 C 166.003906 32.785156 166.734375 32.34375 167.523438 32.0625 C 171.089844 30.621094 174.242188 29.511719 177.648438 28.121094 C 178.738281 27.734375 180.226562 30.40625 181.964844 31.382812 C 182.375 31.648438 182.792969 31.890625 183.238281 32.117188 C 184.546875 32.777344 186.011719 33.230469 187.675781 33.441406 C 188.945312 33.523438 189.960938 34.402344 190.675781 35.648438 C 190.796875 36.015625 190.847656 36.394531 190.796875 36.769531 C 190.5625 37.960938 190.367188 39.117188 190.269531 40.230469 C 190.222656 40.796875 190.195312 41.347656 190.195312 41.886719 C 189.808594 45.996094 195.09375 51.925781 188.972656 53.328125 C 188.585938 53.535156 188.226562 53.78125 187.902344 54.121094 C 185.519531 56.914062 185.507812 61.890625 181.671875 63.304688 C 181.15625 63.613281 180.472656 63.671875 179.882812 63.53125 C 176.820312 63.371094 174.898438 59.441406 171.476562 60.296875 C 169.777344 60.902344 167.566406 61.808594 165.679688 61.152344 C 165.304688 61.015625 164.945312 60.820312 164.613281 60.546875 C 163.707031 59.859375 163.054688 59.023438 162.824219 57.867188 C 162.417969 55.707031 163.164062 53.3125 161.984375 51.417969 C 161.714844 50.960938 161.355469 50.550781 160.933594 50.179688 " fill-opacity="1" fill-rule="nonzero"/><path fill="rgb(97.648621%, 65.879822%, 14.509583%)" d="M 179.855469 38.875 C 179.855469 38.875 175.472656 44.777344 168.164062 42.398438 C 168.164062 42.398438 169.125 45.871094 166.671875 47.453125 C 164.214844 49.03125 168.027344 46.269531 170.570312 48.957031 C 173.109375 51.644531 175.96875 53.207031 175.167969 54.199219 C 174.367188 55.191406 177.410156 53.757812 179.835938 50.859375 C 182.269531 47.957031 184.550781 47.410156 185.324219 49.089844 C 186.089844 50.769531 184.550781 43.398438 181.949219 44.820312 C 179.359375 46.234375 176.980469 46.28125 177.347656 44.820312 C 177.714844 43.355469 181.222656 40.25 179.855469 38.875 " fill-opacity="1" fill-rule="nonzero"/><path fill="rgb(97.648621%, 65.879822%, 14.509583%)" d="M 159.066406 70.375 C 158.640625 70.214844 158.25 70.015625 157.898438 69.773438 C 157.546875 69.53125 157.21875 69.261719 156.945312 68.957031 C 156.394531 68.355469 156.050781 67.628906 156.109375 66.808594 C 156.285156 64.800781 158.703125 64.117188 159.738281 62.53125 C 160.078125 62.15625 160.398438 61.757812 160.695312 61.351562 C 161.886719 59.710938 162.761719 57.796875 163.515625 55.667969 C 163.816406 55.027344 164.5 54.433594 165.0625 53.894531 C 165.457031 53.539062 165.882812 53.199219 166.324219 52.882812 C 167.222656 52.253906 168.214844 51.722656 169.335938 51.328125 C 169.804688 51.164062 170.285156 51.019531 170.765625 50.871094 C 173.910156 49.101562 175.464844 51.394531 177.625 53.035156 C 178.058594 53.359375 178.511719 53.664062 179.007812 53.914062 C 181.089844 54.761719 184.460938 54.28125 184.914062 56.066406 C 185.488281 58.703125 182.375 61.40625 182.078125 64.617188 C 182.011719 65.152344 181.957031 65.703125 181.925781 66.246094 C 181.804688 68.441406 181.9375 70.699219 181.847656 72.945312 C 181.714844 74.59375 181.003906 76.082031 179.8125 77.398438 C 179.507812 77.722656 179.183594 78.023438 178.835938 78.292969 C 174.195312 81.875 168.847656 78.265625 166.042969 74.292969 C 165.667969 73.875 165.277344 73.476562 164.851562 73.109375 C 163.597656 72.011719 162.109375 71.191406 160.199219 70.882812 C 159.851562 70.703125 159.476562 70.539062 159.066406 70.375 " fill-opacity="1" fill-rule="nonzero"/><path fill="rgb(97.648621%, 65.879822%, 14.509583%)" d="M 182.703125 56.144531 C 182.703125 56.144531 180.34375 54.230469 175.617188 58.65625 C 170.902344 63.078125 171.84375 59.65625 170.046875 60.019531 C 168.257812 60.378906 167.425781 62.804688 163.738281 64.90625 C 160.050781 67.011719 160.261719 65.078125 160.261719 65.078125 C 160.261719 65.078125 168.265625 61.921875 166.574219 60.640625 C 164.875 59.359375 168.660156 58.28125 168.367188 57.941406 C 168.070312 57.609375 171.277344 56.867188 171.015625 54.765625 C 170.75 52.664062 174.148438 54.257812 174.546875 55.378906 C 174.9375 56.5 172.207031 58.535156 173.703125 58.269531 C 175.203125 58.003906 179.132812 53.066406 182.703125 56.144531 " fill-opacity="1" fill-rule="nonzero"/><path fill="rgb(97.648621%, 65.879822%, 14.509583%)" d="M 78.101562 54.367188 C 77.6875 54.375 77.28125 54.339844 76.894531 54.25 C 76.5 54.160156 76.121094 54.03125 75.789062 53.863281 C 75.105469 53.53125 74.566406 53.027344 74.34375 52.296875 C 73.808594 50.496094 75.664062 49.082031 76.019531 47.359375 C 76.179688 46.921875 76.324219 46.472656 76.4375 46.015625 C 76.914062 44.1875 77.019531 42.242188 76.949219 40.144531 C 76.996094 39.488281 77.371094 38.742188 77.675781 38.089844 C 77.898438 37.640625 78.148438 37.203125 78.433594 36.78125 C 78.992188 35.933594 79.65625 35.136719 80.496094 34.414062 C 80.84375 34.109375 81.214844 33.820312 81.574219 33.527344 C 83.691406 30.929688 85.816406 32.375 88.238281 33.058594 C 88.730469 33.191406 89.21875 33.300781 89.734375 33.34375 C 91.820312 33.367188 94.570312 31.800781 95.570312 33.191406 C 96.960938 35.269531 95.191406 38.667969 96.023438 41.539062 C 96.144531 42.035156 96.289062 42.519531 96.449219 43.003906 C 97.089844 44.9375 97.972656 46.839844 98.652344 48.820312 C 99.105469 50.28125 99.003906 51.820312 98.410156 53.355469 C 98.265625 53.742188 98.085938 54.109375 97.871094 54.464844 C 95.078125 59.136719 89.238281 57.851562 85.46875 55.371094 C 84.992188 55.136719 84.515625 54.929688 84.03125 54.753906 C 82.566406 54.234375 81.011719 54.035156 79.257812 54.414062 C 78.894531 54.378906 78.507812 54.371094 78.101562 54.367188 " fill-opacity="1" fill-rule="nonzero"/><path fill="rgb(97.648621%, 65.879822%, 14.509583%)" d="M 93.484375 33.925781 C 93.484375 33.925781 90.789062 33.078125 88.210938 38.515625 C 85.640625 43.949219 85.296875 40.664062 83.875 41.589844 C 82.441406 42.515625 82.554688 44.890625 80.082031 47.964844 C 77.613281 51.042969 77.132812 49.300781 77.132812 49.300781 C 77.132812 49.300781 82.980469 43.84375 81.078125 43.3125 C 79.183594 42.78125 82.085938 40.5625 81.710938 40.371094 C 81.335938 40.179688 83.867188 38.445312 82.921875 36.726562 C 81.976562 34.996094 85.453125 35.214844 86.175781 36.046875 C 86.898438 36.878906 85.230469 39.570312 86.433594 38.828125 C 87.644531 38.089844 89.347656 32.484375 93.484375 33.925781 " fill-opacity="1" fill-rule="nonzero"/><path fill="rgb(97.648621%, 65.879822%, 14.509583%)" d="M 118.445312 52.527344 C 117.992188 52.644531 117.601562 52.671875 117.25 52.625 C 116.898438 52.585938 116.597656 52.476562 116.351562 52.304688 C 115.828125 51.964844 115.496094 51.402344 115.3125 50.722656 C 115.210938 50.382812 115.160156 50.015625 115.132812 49.632812 C 113.203125 43.992188 114.933594 37.351562 121.804688 36.671875 C 122.21875 36.621094 122.640625 36.574219 123.070312 36.546875 C 123.5 36.515625 123.925781 36.496094 124.371094 36.488281 C 124.773438 36.511719 125.125 36.425781 125.414062 36.257812 C 127.339844 34.375 129.878906 31.519531 132.710938 33.53125 C 134.375 34.71875 134.414062 36.832031 135.65625 38.339844 C 135.984375 38.761719 136.410156 38.964844 136.832031 39.167969 C 137.375 39.359375 137.882812 39.617188 138.332031 39.925781 C 140.597656 41.476562 141.710938 44.339844 141.078125 47.132812 C 140.980469 47.65625 140.824219 48.175781 140.625 48.675781 C 140.421875 49.175781 140.164062 49.664062 139.84375 50.121094 C 138.996094 50.855469 138.410156 51.691406 137.992188 52.597656 C 137.78125 53.058594 137.613281 53.523438 137.484375 54.007812 C 136.375 56.902344 137.574219 61.800781 134.464844 62.542969 C 132.460938 62.898438 130.121094 61.777344 127.960938 61.199219 C 127.53125 61.160156 127.113281 61.15625 126.695312 61.183594 C 124.132812 60.882812 122.34375 63.828125 119.953125 63.074219 C 117.824219 62.589844 116.097656 60.183594 117.054688 57.804688 C 117.238281 57.238281 117.480469 56.6875 117.738281 56.179688 C 118 55.664062 118.285156 55.1875 118.566406 54.773438 C 118.890625 54.339844 119.210938 53.902344 119.566406 53.453125 C 119.503906 53.292969 119.394531 52.980469 119.382812 52.878906 C 119.207031 52.726562 118.90625 52.617188 118.445312 52.527344 " fill-opacity="1" fill-rule="nonzero"/><path fill="rgb(97.648621%, 65.879822%, 14.509583%)" d="M 134.136719 47.320312 C 134.65625 46.890625 130.457031 47.257812 129.316406 43.046875 C 129.316406 43.046875 127.804688 45.121094 125.125 44.53125 C 125.125 44.53125 124.152344 48.902344 121.726562 50.355469 C 119.296875 51.800781 120.570312 53.367188 121.339844 55.578125 C 122.128906 57.78125 121.609375 54.652344 124.597656 54.421875 C 127.585938 54.1875 127.550781 51.007812 127.550781 51.007812 C 127.550781 51.007812 132.117188 49.625 131.527344 53.972656 C 130.9375 58.328125 134.605469 51.9375 133.636719 50.390625 C 132.667969 48.839844 132.492188 48.675781 134.136719 47.320312 " fill-opacity="1" fill-rule="nonzero"/><path fill="rgb(97.648621%, 65.879822%, 14.509583%)" d="M 184.054688 44.960938 C 183.601562 45.074219 183.207031 45.101562 182.855469 45.0625 C 182.507812 45.019531 182.207031 44.90625 181.949219 44.734375 C 181.433594 44.398438 181.101562 43.832031 180.917969 43.15625 C 180.824219 42.816406 180.769531 42.449219 180.75 42.066406 C 178.808594 36.425781 180.539062 29.785156 187.410156 29.105469 C 187.824219 29.050781 188.246094 29.007812 188.675781 28.980469 C 189.105469 28.949219 189.539062 28.933594 189.980469 28.921875 C 190.382812 28.945312 190.730469 28.855469 191.027344 28.695312 C 192.945312 26.800781 195.484375 23.949219 198.328125 25.960938 C 199.984375 27.148438 200.027344 29.261719 201.269531 30.773438 C 201.59375 31.191406 202.019531 31.394531 202.445312 31.601562 C 202.984375 31.796875 203.484375 32.050781 203.9375 32.355469 C 206.207031 33.90625 207.316406 36.773438 206.691406 39.5625 C 206.589844 40.09375 206.433594 40.605469 206.234375 41.109375 C 206.027344 41.613281 205.773438 42.097656 205.449219 42.550781 C 204.609375 43.285156 204.015625 44.128906 203.605469 45.039062 C 203.394531 45.492188 203.230469 45.960938 203.09375 46.445312 C 201.980469 49.335938 203.179688 54.230469 200.070312 54.976562 C 198.074219 55.332031 195.730469 54.210938 193.570312 53.636719 C 193.140625 53.597656 192.71875 53.59375 192.300781 53.613281 C 189.742188 53.316406 187.945312 56.261719 185.558594 55.507812 C 183.429688 55.019531 181.703125 52.617188 182.65625 50.242188 C 182.847656 49.671875 183.082031 49.121094 183.34375 48.605469 C 183.605469 48.09375 183.890625 47.625 184.183594 47.210938 C 184.488281 46.769531 184.828125 46.332031 185.171875 45.886719 C 185.113281 45.730469 185 45.414062 184.988281 45.3125 C 184.816406 45.15625 184.507812 45.046875 184.054688 44.960938 " fill-opacity="1" fill-rule="nonzero"/><path fill="rgb(97.648621%, 65.879822%, 14.509583%)" d="M 199.742188 39.75 C 200.261719 39.320312 196.0625 39.691406 194.921875 35.480469 C 194.921875 35.480469 193.414062 37.554688 190.730469 36.96875 C 190.730469 36.96875 189.753906 41.335938 187.332031 42.78125 C 184.914062 44.238281 186.175781 45.796875 186.953125 48.007812 C 187.730469 50.214844 187.214844 47.082031 190.203125 46.851562 C 193.195312 46.621094 193.15625 43.441406 193.15625 43.441406 C 193.15625 43.441406 197.726562 42.0625 197.136719 46.40625 C 196.546875 50.757812 200.210938 44.367188 199.238281 42.820312 C 198.273438 41.273438 198.105469 41.109375 199.742188 39.75 " fill-opacity="1" fill-rule="nonzero"/><path fill="rgb(97.648621%, 65.879822%, 14.509583%)" d="M 68.640625 21.890625 C 68.984375 22.183594 69.285156 22.503906 69.535156 22.847656 C 69.789062 23.199219 70.011719 23.5625 70.164062 23.941406 C 70.484375 24.695312 70.566406 25.488281 70.230469 26.242188 C 69.398438 28.078125 66.894531 27.910156 65.386719 29.0625 C 64.941406 29.304688 64.519531 29.570312 64.089844 29.855469 C 62.421875 31.007812 60.964844 32.511719 59.539062 34.265625 C 59.042969 34.773438 58.207031 35.109375 57.496094 35.425781 C 56.996094 35.628906 56.488281 35.804688 55.964844 35.957031 C 54.90625 36.25 53.800781 36.417969 52.613281 36.414062 C 52.113281 36.414062 51.609375 36.386719 51.113281 36.367188 C 47.5625 36.988281 46.847656 34.304688 45.359375 32.039062 C 45.0625 31.582031 44.742188 31.148438 44.351562 30.746094 C 42.675781 29.25 39.332031 28.582031 39.496094 26.742188 C 39.832031 24.0625 43.675781 22.5625 45.03125 19.632812 C 45.273438 19.148438 45.496094 18.648438 45.710938 18.144531 C 46.554688 16.117188 47.183594 13.945312 48.015625 11.855469 C 48.6875 10.347656 49.859375 9.179688 51.421875 8.339844 C 51.8125 8.136719 52.214844 7.960938 52.640625 7.820312 C 58.207031 6 62.050781 11.1875 63.363281 15.871094 C 63.574219 16.386719 63.816406 16.894531 64.089844 17.378906 C 64.910156 18.835938 66.039062 20.105469 67.734375 21.039062 C 68.007812 21.324219 68.304688 21.605469 68.640625 21.890625 " fill-opacity="1" fill-rule="nonzero"/><path fill="rgb(97.648621%, 65.879822%, 14.509583%)" d="M 40.667969 28.074219 C 40.667969 28.074219 42.261719 30.667969 48.1875 28.074219 C 54.117188 25.488281 52.074219 28.390625 53.886719 28.648438 C 55.695312 28.914062 57.285156 26.90625 61.46875 26.152344 C 65.636719 25.398438 64.804688 27.15625 64.804688 27.15625 C 64.804688 27.15625 56.207031 27.453125 57.378906 29.230469 C 58.542969 31.003906 54.617188 30.753906 54.789062 31.171875 C 54.949219 31.589844 51.679688 31.210938 51.226562 33.277344 C 50.777344 35.351562 48.105469 32.710938 48.105469 31.523438 C 48.105469 30.335938 51.359375 29.332031 49.859375 29.082031 C 48.355469 28.828125 43.015625 32.171875 40.667969 28.074219 " fill-opacity="1" fill-rule="nonzero"/><path fill="rgb(97.648621%, 65.879822%, 14.509583%)" d="M 96.382812 23.835938 C 96.835938 23.886719 97.21875 23.988281 97.535156 24.144531 C 97.847656 24.296875 98.09375 24.507812 98.285156 24.75 C 98.652344 25.242188 98.78125 25.886719 98.734375 26.585938 C 98.703125 26.941406 98.632812 27.304688 98.523438 27.675781 C 98.464844 33.632812 94.628906 39.320312 87.929688 37.660156 C 87.515625 37.574219 87.109375 37.472656 86.695312 37.359375 C 86.277344 37.246094 85.859375 37.117188 85.4375 36.980469 C 85.0625 36.820312 84.710938 36.785156 84.378906 36.84375 C 81.933594 37.980469 78.59375 39.824219 76.585938 36.980469 C 75.421875 35.304688 76.089844 33.300781 75.421875 31.460938 C 75.253906 30.957031 74.921875 30.621094 74.585938 30.289062 C 74.136719 29.925781 73.757812 29.515625 73.429688 29.070312 C 71.808594 26.859375 71.71875 23.777344 73.230469 21.363281 C 73.511719 20.898438 73.824219 20.460938 74.183594 20.054688 C 74.542969 19.652344 74.945312 19.28125 75.398438 18.960938 C 76.4375 18.546875 77.273438 17.949219 77.96875 17.238281 C 78.316406 16.878906 78.628906 16.492188 78.914062 16.082031 C 80.9375 13.726562 81.429688 8.707031 84.609375 9.042969 C 86.609375 9.375 88.445312 11.21875 90.292969 12.484375 C 90.679688 12.660156 91.078125 12.804688 91.476562 12.917969 C 93.796875 14.0625 96.46875 11.886719 98.464844 13.394531 C 100.308594 14.5625 101.136719 17.410156 99.445312 19.332031 C 99.074219 19.800781 98.671875 20.242188 98.253906 20.636719 C 97.839844 21.03125 97.410156 21.382812 97 21.679688 C 96.5625 21.984375 96.109375 22.285156 95.628906 22.59375 C 95.628906 22.757812 95.628906 23.09375 95.605469 23.195312 C 95.71875 23.394531 95.96875 23.605469 96.382812 23.835938 " fill-opacity="1" fill-rule="nonzero"/><path fill="rgb(97.648621%, 65.879822%, 14.509583%)" d="M 78.902344 24.171875 C 78.269531 24.402344 82.359375 25.460938 82.019531 29.808594 C 82.019531 29.808594 84.136719 28.359375 86.472656 29.808594 C 86.472656 29.808594 88.847656 26.015625 91.613281 25.460938 C 94.382812 24.902344 93.714844 23.007812 93.714844 20.667969 C 93.714844 18.320312 93.15625 21.445312 90.261719 20.667969 C 87.367188 19.886719 86.347656 22.898438 86.347656 22.898438 C 86.347656 22.898438 81.574219 22.671875 83.578125 18.773438 C 85.582031 14.863281 80 19.660156 80.398438 21.445312 C 80.796875 23.230469 80.90625 23.441406 78.902344 24.171875 " fill-opacity="1" fill-rule="nonzero"/><path fill="rgb(97.648621%, 65.879822%, 14.509583%)" d="M 87.78125 82.914062 C 87.4375 82.644531 87.035156 82.375 86.640625 82.097656 C 86.238281 81.8125 85.828125 81.515625 85.453125 81.195312 C 82.675781 77.820312 84.613281 71.277344 87.910156 69.578125 C 89.285156 68.957031 90.410156 68.125 91.375 67.160156 C 91.703125 66.839844 92.007812 66.5 92.304688 66.160156 C 92.851562 65.515625 93.582031 65.078125 94.371094 64.800781 C 97.9375 63.359375 101.082031 62.242188 104.488281 60.859375 C 105.59375 60.464844 107.070312 63.136719 108.8125 64.117188 C 109.222656 64.378906 109.640625 64.625 110.082031 64.847656 C 111.394531 65.507812 112.859375 65.96875 114.523438 66.175781 C 115.789062 66.257812 116.808594 67.136719 117.527344 68.378906 C 117.640625 68.746094 117.695312 69.128906 117.640625 69.503906 C 117.40625 70.699219 117.214844 71.851562 117.117188 72.972656 C 117.074219 73.53125 117.039062 74.078125 117.039062 74.621094 C 116.65625 78.726562 121.941406 84.65625 115.808594 86.066406 C 115.433594 86.265625 115.070312 86.515625 114.746094 86.855469 C 112.367188 89.648438 112.351562 94.625 108.519531 96.042969 C 108 96.34375 107.3125 96.414062 106.726562 96.261719 C 103.660156 96.105469 101.746094 92.171875 98.324219 93.03125 C 96.617188 93.636719 94.40625 94.546875 92.523438 93.886719 C 92.152344 93.753906 91.792969 93.558594 91.453125 93.277344 C 90.550781 92.597656 89.898438 91.761719 89.667969 90.597656 C 89.261719 88.441406 90.007812 86.042969 88.828125 84.152344 C 88.558594 83.695312 88.207031 83.289062 87.78125 82.914062 " fill-opacity="1" fill-rule="nonzero"/><path fill="rgb(97.648621%, 65.879822%, 14.509583%)" d="M 106.285156 72.027344 C 106.285156 72.027344 101.902344 77.925781 94.601562 75.546875 C 94.601562 75.546875 95.558594 79.023438 93.101562 80.601562 C 90.652344 82.179688 94.453125 79.417969 97 82.105469 C 99.542969 84.792969 102.402344 86.351562 101.601562 87.347656 C 100.800781 88.34375 103.835938 86.910156 106.269531 84.007812 C 108.699219 81.105469 110.984375 80.5625 111.757812 82.242188 C 112.53125 83.914062 110.984375 76.546875 108.386719 77.96875 C 105.785156 79.386719 103.410156 79.429688 103.777344 77.96875 C 104.148438 76.507812 107.65625 73.398438 106.285156 72.027344 " fill-opacity="1" fill-rule="nonzero"/><path fill="rgb(97.648621%, 65.879822%, 14.509583%)" d="M 182.964844 69.058594 C 182.539062 68.898438 182.148438 68.699219 181.796875 68.457031 C 181.441406 68.214844 181.121094 67.941406 180.847656 67.640625 C 180.289062 67.035156 179.949219 66.3125 180.007812 65.496094 C 180.1875 63.476562 182.601562 62.796875 183.636719 61.210938 C 183.972656 60.839844 184.300781 60.445312 184.59375 60.03125 C 185.785156 58.390625 186.664062 56.484375 187.410156 54.351562 C 187.714844 53.714844 188.390625 53.117188 188.953125 52.578125 C 189.363281 52.21875 189.78125 51.882812 190.230469 51.566406 C 191.121094 50.9375 192.109375 50.402344 193.230469 50.015625 C 193.703125 49.84375 194.1875 49.703125 194.664062 49.554688 C 197.804688 47.78125 199.363281 50.074219 201.527344 51.714844 C 201.957031 52.042969 202.410156 52.34375 202.910156 52.59375 C 204.984375 53.441406 208.355469 52.957031 208.8125 54.75 C 209.390625 57.386719 206.273438 60.085938 205.972656 63.304688 C 205.902344 63.839844 205.855469 64.378906 205.824219 64.929688 C 205.703125 67.121094 205.839844 69.382812 205.746094 71.628906 C 205.621094 73.277344 204.902344 74.765625 203.707031 76.078125 C 203.414062 76.402344 203.082031 76.707031 202.730469 76.980469 C 198.097656 80.550781 192.742188 76.953125 189.949219 72.972656 C 189.566406 72.554688 189.167969 72.15625 188.75 71.792969 C 187.492188 70.691406 186.011719 69.875 184.101562 69.5625 C 183.753906 69.382812 183.367188 69.21875 182.964844 69.058594 " fill-opacity="1" fill-rule="nonzero"/><path fill="rgb(97.648621%, 65.879822%, 14.509583%)" d="M 207.015625 54.410156 C 207.015625 54.410156 204.648438 52.5 199.929688 56.921875 C 195.203125 61.351562 196.15625 57.925781 194.363281 58.285156 C 192.566406 58.644531 191.738281 61.070312 188.050781 63.179688 C 184.363281 65.28125 184.566406 63.347656 184.566406 63.347656 C 184.566406 63.347656 192.574219 60.191406 190.878906 58.910156 C 189.195312 57.621094 192.972656 56.550781 192.679688 56.210938 C 192.382812 55.871094 195.59375 55.132812 195.328125 53.03125 C 195.066406 50.929688 198.464844 52.527344 198.859375 53.648438 C 199.25 54.765625 196.523438 56.800781 198.023438 56.539062 C 199.519531 56.265625 203.445312 51.328125 207.015625 54.410156 " fill-opacity="1" fill-rule="nonzero"/><path fill="rgb(97.648621%, 65.879822%, 14.509583%)" d="M 84.816406 65.835938 C 84.367188 65.949219 83.96875 65.976562 83.621094 65.933594 C 83.269531 65.890625 82.972656 65.78125 82.714844 65.613281 C 82.199219 65.273438 81.867188 64.707031 81.679688 64.03125 C 81.585938 63.691406 81.539062 63.324219 81.515625 62.9375 C 79.582031 57.304688 81.304688 50.660156 88.175781 49.980469 C 88.59375 49.925781 89.015625 49.882812 89.4375 49.851562 C 89.867188 49.820312 90.296875 49.800781 90.746094 49.792969 C 91.152344 49.816406 91.496094 49.730469 91.792969 49.5625 C 93.714844 47.679688 96.25 44.824219 99.097656 46.835938 C 100.746094 48.023438 100.785156 50.136719 102.027344 51.652344 C 102.351562 52.0625 102.78125 52.269531 103.203125 52.472656 C 103.75 52.664062 104.246094 52.925781 104.699219 53.230469 C 106.972656 54.78125 108.085938 57.644531 107.449219 60.441406 C 107.347656 60.960938 107.191406 61.480469 106.996094 61.984375 C 106.789062 62.484375 106.539062 62.964844 106.214844 63.425781 C 105.367188 64.160156 104.789062 65 104.363281 65.90625 C 104.152344 66.359375 103.988281 66.835938 103.855469 67.316406 C 102.742188 70.203125 103.9375 75.101562 100.839844 75.851562 C 98.835938 76.203125 96.5 75.085938 94.335938 74.507812 C 93.910156 74.46875 93.484375 74.464844 93.066406 74.492188 C 90.503906 74.1875 88.710938 77.128906 86.316406 76.382812 C 84.195312 75.894531 82.464844 73.488281 83.425781 71.109375 C 83.613281 70.542969 83.847656 69.992188 84.109375 69.480469 C 84.367188 68.96875 84.65625 68.492188 84.9375 68.082031 C 85.257812 67.644531 85.582031 67.207031 85.929688 66.757812 C 85.875 66.601562 85.761719 66.289062 85.757812 66.1875 C 85.578125 66.035156 85.273438 65.917969 84.816406 65.835938 " fill-opacity="1" fill-rule="nonzero"/><path fill="rgb(97.648621%, 65.879822%, 14.509583%)" d="M 100.511719 60.625 C 101.03125 60.195312 96.824219 60.5625 95.6875 56.351562 C 95.6875 56.351562 94.179688 58.421875 91.496094 57.839844 C 91.496094 57.839844 90.519531 62.207031 88.09375 63.660156 C 85.679688 65.109375 86.9375 66.671875 87.714844 68.882812 C 88.496094 71.085938 87.980469 67.960938 90.96875 67.726562 C 93.957031 67.492188 93.917969 64.316406 93.917969 64.316406 C 93.917969 64.316406 98.488281 62.933594 97.898438 67.28125 C 97.308594 71.628906 100.980469 65.242188 100.007812 63.695312 C 99.039062 62.144531 98.859375 61.984375 100.511719 60.625 " fill-opacity="1" fill-rule="nonzero"/><path fill="rgb(97.648621%, 65.879822%, 14.509583%)" d="M 143.605469 32.59375 C 143.15625 32.707031 142.753906 32.738281 142.410156 32.691406 C 142.058594 32.648438 141.761719 32.535156 141.507812 32.371094 C 140.988281 32.03125 140.65625 31.46875 140.46875 30.785156 C 140.375 30.449219 140.320312 30.078125 140.296875 29.699219 C 138.367188 24.058594 140.09375 17.414062 146.960938 16.734375 C 147.382812 16.683594 147.804688 16.640625 148.230469 16.609375 C 148.660156 16.578125 149.089844 16.5625 149.535156 16.550781 C 149.941406 16.574219 150.277344 16.488281 150.582031 16.324219 C 152.503906 14.433594 155.046875 11.582031 157.878906 13.597656 C 159.535156 14.78125 159.574219 16.894531 160.816406 18.402344 C 161.140625 18.824219 161.574219 19.027344 161.992188 19.230469 C 162.53125 19.421875 163.035156 19.679688 163.488281 19.988281 C 165.753906 21.542969 166.871094 24.402344 166.242188 27.199219 C 166.136719 27.722656 165.984375 28.242188 165.785156 28.738281 C 165.582031 29.238281 165.324219 29.726562 165.003906 30.183594 C 164.164062 30.917969 163.574219 31.757812 163.15625 32.664062 C 162.945312 33.117188 162.785156 33.589844 162.640625 34.074219 C 161.527344 36.960938 162.730469 41.859375 159.621094 42.605469 C 157.625 42.960938 155.285156 41.839844 153.121094 41.265625 C 152.695312 41.226562 152.273438 41.222656 151.859375 41.25 C 149.296875 40.945312 147.5 43.890625 145.109375 43.140625 C 142.984375 42.648438 141.25 40.25 142.214844 37.867188 C 142.398438 37.300781 142.640625 36.75 142.898438 36.242188 C 143.15625 35.730469 143.445312 35.253906 143.734375 34.835938 C 144.046875 34.40625 144.378906 33.96875 144.71875 33.519531 C 144.667969 33.359375 144.550781 33.042969 144.542969 32.941406 C 144.367188 32.789062 144.0625 32.679688 143.605469 32.59375 " fill-opacity="1" fill-rule="nonzero"/><path fill="rgb(97.648621%, 65.879822%, 14.509583%)" d="M 159.300781 27.382812 C 159.816406 26.953125 155.613281 27.324219 154.480469 23.109375 C 154.480469 23.109375 152.972656 25.183594 150.277344 24.597656 C 150.277344 24.597656 149.308594 28.964844 146.882812 30.417969 C 144.460938 31.863281 145.726562 33.433594 146.507812 35.636719 C 147.28125 37.847656 146.773438 34.71875 149.761719 34.484375 C 152.75 34.253906 152.703125 31.070312 152.703125 31.070312 C 152.703125 31.070312 157.273438 29.6875 156.6875 34.039062 C 156.101562 38.386719 159.765625 32.003906 158.796875 30.449219 C 157.824219 28.902344 157.652344 28.742188 159.300781 27.382812 " fill-opacity="1" fill-rule="nonzero"/><path fill="rgb(97.648621%, 65.879822%, 14.509583%)" d="M 103.089844 46.335938 C 102.835938 46.464844 102.5625 46.625 102.289062 46.785156 C 102.011719 46.945312 101.722656 47.101562 101.417969 47.234375 C 98.652344 47.949219 95.328125 44.980469 95.242188 42.550781 C 95.257812 41.5625 95.078125 40.660156 94.785156 39.816406 C 94.683594 39.535156 94.570312 39.261719 94.441406 38.988281 C 94.21875 38.488281 94.164062 37.933594 94.21875 37.386719 C 94.359375 34.875 94.570312 32.695312 94.699219 30.292969 C 94.785156 29.527344 96.765625 29.394531 97.832031 28.636719 C 98.097656 28.46875 98.363281 28.285156 98.617188 28.085938 C 99.375 27.488281 100.054688 26.753906 100.636719 25.820312 C 101.039062 25.09375 101.84375 24.734375 102.777344 24.65625 C 103.027344 24.683594 103.265625 24.765625 103.476562 24.898438 C 104.109375 25.371094 104.742188 25.804688 105.378906 26.175781 C 105.691406 26.359375 106.015625 26.527344 106.332031 26.679688 C 108.644531 28.050781 113.625 26.570312 112.75 30.589844 C 112.769531 30.875 112.808594 31.15625 112.921875 31.441406 C 113.914062 33.632812 116.847656 35.027344 116.617188 37.691406 C 116.65625 38.082031 116.503906 38.507812 116.253906 38.816406 C 115.3125 40.589844 112.453125 40.632812 112.007812 42.894531 C 111.886719 44.078125 111.804688 45.640625 110.894531 46.574219 C 110.714844 46.757812 110.492188 46.917969 110.242188 47.042969 C 109.582031 47.386719 108.90625 47.539062 108.15625 47.355469 C 106.769531 46.996094 105.558594 45.886719 104.109375 46.054688 C 103.769531 46.089844 103.429688 46.1875 103.089844 46.335938 " fill-opacity="1" fill-rule="nonzero"/><path fill="rgb(97.648621%, 65.879822%, 14.509583%)" d="M 101.253906 32.390625 C 101.253906 32.390625 103.523438 36.632812 100.089844 40.296875 C 100.089844 40.296875 102.410156 40.695312 102.660156 42.589844 C 102.914062 44.476562 102.335938 41.457031 104.628906 40.699219 C 106.929688 39.9375 108.644531 38.675781 109.011719 39.429688 C 109.375 40.179688 109.375 37.980469 108.335938 35.734375 C 107.296875 33.484375 107.613281 31.976562 108.820312 31.988281 C 110.023438 31.996094 105.242188 30.859375 105.351562 32.796875 C 105.46875 34.734375 104.835938 36.15625 104.074219 35.527344 C 103.3125 34.902344 102.449219 31.957031 101.253906 32.390625 " fill-opacity="1" fill-rule="nonzero"/><path fill="rgb(97.648621%, 65.879822%, 14.509583%)" d="M 59.121094 269.535156 C 59.335938 269.875 59.59375 270.226562 59.851562 270.585938 C 60.109375 270.953125 60.371094 271.332031 60.585938 271.71875 C 61.957031 275.460938 58.3125 280.480469 54.972656 280.929688 C 53.597656 281.050781 52.386719 281.417969 51.257812 281.949219 C 50.890625 282.128906 50.527344 282.324219 50.164062 282.53125 C 49.503906 282.910156 48.742188 283.0625 47.984375 283.0625 C 44.492188 283.21875 41.449219 283.21875 38.113281 283.367188 C 37.050781 283.367188 36.59375 280.628906 35.394531 279.261719 C 35.128906 278.90625 34.839844 278.570312 34.53125 278.246094 C 33.601562 277.285156 32.488281 276.445312 31.117188 275.761719 C 30.058594 275.304688 29.453125 274.238281 29.21875 272.957031 C 29.21875 272.613281 29.300781 272.265625 29.453125 271.960938 C 30.023438 271.007812 30.539062 270.074219 30.960938 269.144531 C 31.171875 268.683594 31.363281 268.222656 31.523438 267.753906 C 33.097656 264.351562 30.363281 257.660156 36.050781 258.320312 C 36.429688 258.261719 36.816406 258.15625 37.203125 257.96875 C 40.082031 256.289062 41.605469 252.035156 45.320312 251.984375 C 45.859375 251.878906 46.464844 252.035156 46.921875 252.34375 C 49.503906 253.398438 49.957031 257.359375 53.148438 257.660156 C 54.792969 257.660156 56.972656 257.554688 58.375 258.6875 C 58.65625 258.921875 58.910156 259.199219 59.117188 259.535156 C 59.675781 260.398438 59.984375 261.3125 59.832031 262.378906 C 59.523438 264.351562 58.160156 266.179688 58.597656 268.160156 C 58.6875 268.632812 58.867188 269.085938 59.121094 269.535156 " fill-opacity="1" fill-rule="nonzero"/><path fill="rgb(97.648621%, 65.879822%, 14.509583%)" d="M 39.476562 273.484375 C 39.476562 273.484375 45.023438 269.753906 50.566406 274.015625 C 50.566406 274.015625 50.796875 270.746094 53.378906 270.136719 C 55.957031 269.53125 51.855469 270.738281 50.488281 267.660156 C 49.125 264.578125 47.144531 262.378906 48.132812 261.769531 C 49.125 261.164062 46.085938 261.464844 43.121094 263.210938 C 40.164062 264.964844 38.035156 264.734375 37.882812 263.0625 C 37.730469 261.390625 36.816406 268.175781 39.476562 267.746094 C 42.136719 267.320312 44.183594 268.007812 43.433594 269.144531 C 42.675781 270.289062 38.71875 271.882812 39.476562 273.484375 " fill-opacity="1" fill-rule="nonzero"/><path fill="rgb(97.648621%, 65.879822%, 14.509583%)" d="M 137.96875 269.746094 C 137.648438 269.503906 137.292969 269.257812 136.925781 269.003906 C 136.5625 268.746094 136.195312 268.476562 135.851562 268.179688 C 133.316406 265.117188 135.078125 259.167969 138.082031 257.621094 C 139.328125 257.054688 140.355469 256.300781 141.230469 255.421875 C 141.535156 255.132812 141.808594 254.828125 142.078125 254.515625 C 142.578125 253.925781 143.246094 253.53125 143.960938 253.28125 C 147.203125 251.964844 150.0625 250.953125 153.167969 249.691406 C 154.167969 249.335938 155.511719 251.765625 157.089844 252.65625 C 157.464844 252.898438 157.855469 253.121094 158.246094 253.320312 C 159.445312 253.925781 160.765625 254.335938 162.285156 254.523438 C 163.4375 254.601562 164.363281 255.402344 165.011719 256.535156 C 165.125 256.871094 165.171875 257.214844 165.125 257.546875 C 164.90625 258.644531 164.734375 259.6875 164.644531 260.707031 C 164.597656 261.210938 164.578125 261.714844 164.578125 262.210938 C 164.226562 265.941406 169.03125 271.335938 163.457031 272.613281 C 163.113281 272.796875 162.785156 273.027344 162.488281 273.332031 C 160.324219 275.875 160.316406 280.398438 156.824219 281.683594 C 156.351562 281.964844 155.730469 282.019531 155.199219 281.886719 C 152.40625 281.75 150.664062 278.167969 147.554688 278.949219 C 146 279.503906 143.992188 280.324219 142.28125 279.722656 C 141.941406 279.609375 141.613281 279.433594 141.3125 279.175781 C 140.480469 278.546875 139.894531 277.792969 139.683594 276.738281 C 139.316406 274.773438 139.988281 272.589844 138.917969 270.875 C 138.675781 270.460938 138.359375 270.085938 137.96875 269.746094 " fill-opacity="1" fill-rule="nonzero"/><path fill="rgb(97.648621%, 65.879822%, 14.509583%)" d="M 155.164062 259.46875 C 155.164062 259.46875 151.183594 264.835938 144.542969 262.671875 C 144.542969 262.671875 145.417969 265.832031 143.1875 267.265625 C 140.957031 268.703125 144.417969 266.191406 146.726562 268.636719 C 149.046875 271.082031 151.636719 272.5 150.910156 273.402344 C 150.183594 274.308594 152.949219 273.003906 155.152344 270.363281 C 157.367188 267.726562 159.445312 267.230469 160.144531 268.761719 C 160.847656 270.285156 159.445312 263.578125 157.078125 264.875 C 154.71875 266.164062 152.554688 266.203125 152.894531 264.875 C 153.222656 263.542969 156.417969 260.71875 155.164062 259.46875 " fill-opacity="1" fill-rule="nonzero"/><path fill="rgb(97.648621%, 65.879822%, 14.509583%)" d="M 68.875 268.800781 C 69.257812 268.683594 69.65625 268.613281 70.046875 268.601562 C 70.441406 268.589844 70.816406 268.613281 71.1875 268.691406 C 71.917969 268.835938 72.558594 269.175781 72.949219 269.816406 C 73.902344 271.386719 72.496094 273.1875 72.589844 274.90625 C 72.546875 275.363281 72.519531 275.824219 72.523438 276.285156 C 72.539062 278.132812 72.917969 280.003906 73.511719 281.972656 C 73.628906 282.605469 73.457031 283.40625 73.335938 284.097656 C 73.230469 284.578125 73.097656 285.058594 72.949219 285.53125 C 72.628906 286.472656 72.191406 287.398438 71.582031 288.285156 C 71.324219 288.667969 71.046875 289.035156 70.78125 289.394531 C 69.421875 292.386719 67.046875 291.546875 64.585938 291.507812 C 64.089844 291.507812 63.597656 291.53125 63.097656 291.613281 C 61.125 292.109375 58.910156 294.285156 57.613281 293.222656 C 55.773438 291.597656 56.605469 287.9375 55.101562 285.417969 C 54.859375 284.988281 54.601562 284.5625 54.332031 284.152344 C 53.238281 282.476562 51.933594 280.890625 50.785156 279.191406 C 49.996094 277.921875 49.722656 276.4375 49.886719 274.832031 C 49.925781 274.433594 50.015625 274.035156 50.121094 273.648438 C 51.601562 268.527344 57.457031 268.285156 61.648438 269.6875 C 62.152344 269.792969 62.648438 269.871094 63.152344 269.910156 C 64.664062 270.039062 66.195312 269.835938 67.769531 269.039062 C 68.113281 268.980469 68.480469 268.898438 68.875 268.800781 " fill-opacity="1" fill-rule="nonzero"/><path fill="rgb(97.648621%, 65.879822%, 14.509583%)" d="M 59.117188 292.496094 C 59.117188 292.496094 61.867188 292.621094 62.957031 286.835938 C 64.042969 281.042969 65.179688 284.066406 66.304688 282.832031 C 67.421875 281.605469 66.726562 279.378906 68.300781 275.851562 C 69.871094 272.320312 70.769531 273.847656 70.769531 273.847656 C 70.769531 273.847656 66.585938 280.476562 68.515625 280.503906 C 70.449219 280.527344 68.25 283.363281 68.65625 283.445312 C 69.050781 283.53125 67.097656 285.808594 68.414062 287.207031 C 69.742188 288.605469 66.390625 289.269531 65.496094 288.65625 C 64.609375 288.050781 65.523438 285.082031 64.566406 286.085938 C 63.609375 287.09375 63.378906 292.832031 59.117188 292.496094 " fill-opacity="1" fill-rule="nonzero"/><path fill="rgb(97.648621%, 65.879822%, 14.509583%)" d="M 179.359375 253.546875 C 179.75 253.429688 180.148438 253.367188 180.527344 253.355469 C 180.925781 253.339844 181.3125 253.363281 181.671875 253.441406 C 182.402344 253.585938 183.039062 253.929688 183.441406 254.570312 C 184.390625 256.136719 182.980469 257.9375 183.078125 259.660156 C 183.03125 260.117188 183.007812 260.574219 183.007812 261.039062 C 183.023438 262.882812 183.402344 264.757812 184 266.722656 C 184.117188 267.359375 183.945312 268.15625 183.824219 268.851562 C 183.71875 269.335938 183.589844 269.8125 183.429688 270.285156 C 183.113281 271.226562 182.675781 272.148438 182.066406 273.035156 C 181.804688 273.414062 181.535156 273.78125 181.265625 274.144531 C 179.914062 277.140625 177.539062 276.296875 175.074219 276.261719 C 174.582031 276.257812 174.085938 276.277344 173.585938 276.367188 C 171.601562 276.863281 169.394531 279.039062 168.09375 277.96875 C 166.257812 276.351562 167.09375 272.6875 165.582031 270.167969 C 165.34375 269.738281 165.089844 269.3125 164.8125 268.898438 C 163.730469 267.226562 162.417969 265.640625 161.277344 263.941406 C 160.484375 262.667969 160.207031 261.195312 160.375 259.582031 C 160.414062 259.183594 160.496094 258.789062 160.609375 258.394531 C 162.089844 253.277344 167.941406 253.03125 172.132812 254.4375 C 172.632812 254.539062 173.136719 254.625 173.640625 254.664062 C 175.15625 254.785156 176.683594 254.582031 178.25 253.789062 C 178.597656 253.730469 178.972656 253.644531 179.359375 253.546875 " fill-opacity="1" fill-rule="nonzero"/><path fill="rgb(97.648621%, 65.879822%, 14.509583%)" d="M 169.601562 277.242188 C 169.601562 277.242188 172.359375 277.375 173.445312 271.585938 C 174.523438 265.792969 175.667969 268.820312 176.792969 267.585938 C 177.914062 266.347656 177.214844 264.128906 178.789062 260.601562 C 180.359375 257.066406 181.253906 258.597656 181.253906 258.597656 C 181.253906 258.597656 177.074219 265.226562 179.003906 265.253906 C 180.929688 265.285156 178.738281 268.109375 179.136719 268.199219 C 179.535156 268.285156 177.582031 270.554688 178.902344 271.953125 C 180.230469 273.355469 176.882812 274.015625 175.984375 273.410156 C 175.09375 272.804688 176.007812 269.835938 175.050781 270.835938 C 174.09375 271.847656 173.867188 277.578125 169.601562 277.242188 " fill-opacity="1" fill-rule="nonzero"/><path fill="rgb(97.648621%, 65.879822%, 14.509583%)" d="M 135.09375 278.210938 C 135.511719 278.246094 135.859375 278.347656 136.144531 278.492188 C 136.433594 278.636719 136.65625 278.816406 136.824219 279.042969 C 137.164062 279.488281 137.277344 280.074219 137.234375 280.714844 C 137.210938 281.035156 137.148438 281.363281 137.046875 281.695312 C 136.996094 287.117188 133.503906 292.292969 127.414062 290.785156 C 127.035156 290.707031 126.664062 290.605469 126.28125 290.507812 C 125.90625 290.402344 125.53125 290.289062 125.144531 290.160156 C 124.808594 290.015625 124.484375 289.988281 124.183594 290.035156 C 121.960938 291.074219 118.921875 292.75 117.101562 290.160156 C 116.035156 288.640625 116.644531 286.8125 116.035156 285.144531 C 115.886719 284.6875 115.582031 284.382812 115.273438 284.074219 C 114.875 283.75 114.523438 283.375 114.226562 282.972656 C 112.75 280.957031 112.667969 278.164062 114.050781 275.957031 C 114.304688 275.539062 114.582031 275.140625 114.90625 274.773438 C 115.238281 274.40625 115.601562 274.070312 116.023438 273.777344 C 116.964844 273.398438 117.71875 272.859375 118.351562 272.207031 C 118.667969 271.878906 118.953125 271.53125 119.214844 271.152344 C 121.046875 269.019531 121.503906 264.453125 124.394531 264.757812 C 126.214844 265.0625 127.882812 266.738281 129.5625 267.886719 C 129.917969 268.042969 130.273438 268.179688 130.644531 268.285156 C 132.742188 269.320312 135.179688 267.347656 136.996094 268.714844 C 138.667969 269.777344 139.425781 272.363281 137.882812 274.113281 C 137.546875 274.539062 137.183594 274.945312 136.800781 275.304688 C 136.425781 275.660156 136.039062 275.984375 135.65625 276.25 C 135.265625 276.527344 134.847656 276.800781 134.414062 277.082031 C 134.414062 277.230469 134.414062 277.535156 134.390625 277.621094 C 134.496094 277.8125 134.71875 278 135.09375 278.210938 " fill-opacity="1" fill-rule="nonzero"/><path fill="rgb(97.648621%, 65.879822%, 14.509583%)" d="M 119.582031 278.140625 C 119.007812 278.351562 122.71875 279.3125 122.417969 283.269531 C 122.417969 283.269531 124.339844 281.945312 126.464844 283.269531 C 126.464844 283.269531 128.617188 279.816406 131.136719 279.3125 C 133.652344 278.808594 133.046875 277.082031 133.046875 274.945312 C 133.046875 272.820312 132.542969 275.65625 129.902344 274.945312 C 127.277344 274.238281 126.347656 276.976562 126.347656 276.976562 C 126.347656 276.976562 122.011719 276.773438 123.835938 273.230469 C 125.648438 269.675781 120.574219 274.035156 120.9375 275.65625 C 121.300781 277.285156 121.398438 277.476562 119.582031 278.140625 " fill-opacity="1" fill-rule="nonzero"/></svg>